G75*
%MOIN*%
%OFA0B0*%
%FSLAX24Y24*%
%IPPOS*%
%LPD*%
%AMOC8*
5,1,8,0,0,1.08239X$1,22.5*
%
%ADD10C,0.1330*%
%ADD11OC8,0.0600*%
%ADD12C,0.0600*%
%ADD13C,0.0680*%
%ADD14C,0.0680*%
%ADD15OC8,0.0680*%
%ADD16C,0.0720*%
%ADD17C,0.2080*%
%ADD18C,0.1830*%
%ADD19C,0.1580*%
%ADD20C,0.0740*%
%ADD21OC8,0.0640*%
%ADD22C,0.0640*%
%ADD23OC8,0.0710*%
%ADD24C,0.0710*%
%ADD25C,0.0600*%
%ADD26C,0.0840*%
%ADD27R,0.0710X0.0540*%
%ADD28R,0.0720X0.0060*%
%ADD29R,0.0820X0.0820*%
%ADD30C,0.0820*%
D10*
X005863Y001680D03*
X037263Y023180D03*
X037263Y032180D03*
X040363Y032680D03*
X005863Y032680D03*
X040363Y001680D03*
D11*
X039363Y006680D03*
X038363Y006680D03*
X036863Y006680D03*
X035863Y006680D03*
X036863Y007680D03*
X036863Y008680D03*
X035863Y009680D03*
X036863Y011680D03*
X037863Y011680D03*
X039363Y010170D03*
X038363Y009180D03*
X039363Y008190D03*
X040863Y011680D03*
X038963Y013180D03*
X040363Y014180D03*
X037363Y014690D03*
X036363Y015680D03*
X037363Y016670D03*
X040363Y017180D03*
X040363Y019180D03*
X040363Y020180D03*
X034363Y021180D03*
X033363Y021180D03*
X027863Y022680D03*
X027863Y023680D03*
X032863Y027180D03*
X032863Y028180D03*
X032863Y029180D03*
X032863Y030180D03*
X033363Y026180D03*
X036363Y026180D03*
X037863Y027680D03*
X037863Y028680D03*
X019363Y022180D03*
X019363Y021180D03*
X016363Y021180D03*
X015363Y021680D03*
X016363Y022180D03*
X015363Y020680D03*
X015363Y019180D03*
X015363Y018180D03*
X015863Y016680D03*
X018863Y016680D03*
X016863Y012680D03*
X015863Y012680D03*
X017863Y011180D03*
X017863Y010180D03*
X012863Y009680D03*
X012863Y010680D03*
X011363Y009180D03*
X012863Y008180D03*
X012863Y007180D03*
X011363Y006180D03*
X012863Y005680D03*
X012863Y004680D03*
X010363Y018680D03*
X010363Y019680D03*
X015863Y025180D03*
X016863Y025180D03*
X017863Y025180D03*
X018863Y025180D03*
X018363Y027180D03*
X017363Y027180D03*
X014363Y031180D03*
X011363Y031180D03*
X010863Y030180D03*
X010863Y028180D03*
X036363Y013380D03*
D12*
X034623Y013180D02*
X034103Y013180D01*
X034103Y012180D02*
X034623Y012180D01*
X034623Y011180D02*
X034103Y011180D01*
X034103Y010180D02*
X034623Y010180D01*
X034623Y009180D02*
X034103Y009180D01*
X034103Y008180D02*
X034623Y008180D01*
X034623Y007180D02*
X034103Y007180D01*
X034103Y006180D02*
X034623Y006180D01*
X034623Y005180D02*
X034103Y005180D01*
X028623Y005180D02*
X028103Y005180D01*
X028103Y006180D02*
X028623Y006180D01*
X028623Y007180D02*
X028103Y007180D01*
X028103Y008180D02*
X028623Y008180D01*
X028623Y009180D02*
X028103Y009180D01*
X028103Y010180D02*
X028623Y010180D01*
X028623Y011180D02*
X028103Y011180D01*
X028103Y012180D02*
X028623Y012180D01*
X028623Y013180D02*
X028103Y013180D01*
X028103Y014180D02*
X028623Y014180D01*
X028623Y015180D02*
X028103Y015180D01*
X028103Y016180D02*
X028623Y016180D01*
X028623Y017180D02*
X028103Y017180D01*
X028103Y018180D02*
X028623Y018180D01*
X028623Y019180D02*
X028103Y019180D01*
X028103Y020180D02*
X028623Y020180D01*
X026623Y020180D02*
X026103Y020180D01*
X026103Y019180D02*
X026623Y019180D01*
X026623Y018180D02*
X026103Y018180D01*
X026103Y017180D02*
X026623Y017180D01*
X026623Y016180D02*
X026103Y016180D01*
X026103Y015180D02*
X026623Y015180D01*
X026623Y014180D02*
X026103Y014180D01*
X026103Y013180D02*
X026623Y013180D01*
X026623Y012180D02*
X026103Y012180D01*
X026103Y011180D02*
X026623Y011180D01*
X026623Y010180D02*
X026103Y010180D01*
X026103Y009180D02*
X026623Y009180D01*
X026623Y008180D02*
X026103Y008180D01*
X026103Y007180D02*
X026623Y007180D01*
X026623Y006180D02*
X026103Y006180D01*
X026103Y005180D02*
X026623Y005180D01*
X020623Y005180D02*
X020103Y005180D01*
X020103Y006180D02*
X020623Y006180D01*
X020623Y007180D02*
X020103Y007180D01*
X020103Y008180D02*
X020623Y008180D01*
X020623Y009180D02*
X020103Y009180D01*
X020103Y010180D02*
X020623Y010180D01*
X020623Y011180D02*
X020103Y011180D01*
X020103Y012180D02*
X020623Y012180D01*
X020623Y013180D02*
X020103Y013180D01*
X020103Y014180D02*
X020623Y014180D01*
X020623Y015180D02*
X020103Y015180D01*
X020103Y016180D02*
X020623Y016180D01*
X020623Y017180D02*
X020103Y017180D01*
X020103Y018180D02*
X020623Y018180D01*
X020623Y019180D02*
X020103Y019180D01*
X020103Y020180D02*
X020623Y020180D01*
X020623Y021180D02*
X020103Y021180D01*
X020103Y022180D02*
X020623Y022180D01*
X020623Y023180D02*
X020103Y023180D01*
X020103Y024180D02*
X020623Y024180D01*
X026103Y024180D02*
X026623Y024180D01*
X026623Y023180D02*
X026103Y023180D01*
X026103Y022180D02*
X026623Y022180D01*
X026623Y021180D02*
X026103Y021180D01*
X034103Y020180D02*
X034623Y020180D01*
X034623Y019180D02*
X034103Y019180D01*
X034103Y018180D02*
X034623Y018180D01*
X034623Y017180D02*
X034103Y017180D01*
X034103Y016180D02*
X034623Y016180D01*
X034623Y015180D02*
X034103Y015180D01*
X034103Y014180D02*
X034623Y014180D01*
X017123Y011180D02*
X016603Y011180D01*
X016603Y010180D02*
X017123Y010180D01*
X017123Y009180D02*
X016603Y009180D01*
X016603Y008180D02*
X017123Y008180D01*
X017123Y007180D02*
X016603Y007180D01*
X016603Y006180D02*
X017123Y006180D01*
X017123Y005180D02*
X016603Y005180D01*
X016603Y004180D02*
X017123Y004180D01*
X014123Y004180D02*
X013603Y004180D01*
X013603Y005180D02*
X014123Y005180D01*
X014123Y006180D02*
X013603Y006180D01*
X013603Y007180D02*
X014123Y007180D01*
X014123Y008180D02*
X013603Y008180D01*
X013603Y009180D02*
X014123Y009180D01*
X014123Y010180D02*
X013603Y010180D01*
X013603Y011180D02*
X014123Y011180D01*
X013863Y032420D02*
X013863Y032940D01*
X012863Y032940D02*
X012863Y032420D01*
X010863Y032420D02*
X010863Y032940D01*
X009863Y032940D02*
X009863Y032420D01*
X020363Y032420D02*
X020363Y032940D01*
X021363Y032940D02*
X021363Y032420D01*
X023363Y032420D02*
X023363Y032940D01*
X024363Y032940D02*
X024363Y032420D01*
D13*
X030063Y032180D02*
X030663Y032180D01*
X030663Y031180D02*
X030063Y031180D01*
X030063Y030180D02*
X030663Y030180D01*
X030663Y029180D02*
X030063Y029180D01*
X030063Y028180D02*
X030663Y028180D01*
X030663Y027180D02*
X030063Y027180D01*
X030063Y026180D02*
X030663Y026180D01*
X030663Y025180D02*
X030063Y025180D01*
X030063Y024180D02*
X030663Y024180D01*
X030663Y023180D02*
X030063Y023180D01*
X018363Y027880D02*
X018363Y028480D01*
X017363Y028480D02*
X017363Y027880D01*
X016363Y027880D02*
X016363Y028480D01*
X040063Y010180D02*
X040663Y010180D01*
X040663Y009180D02*
X040063Y009180D01*
X040063Y008180D02*
X040663Y008180D01*
X026363Y002980D02*
X026363Y002380D01*
X026363Y001980D02*
X026363Y001380D01*
X025363Y001380D02*
X025363Y001980D01*
X025363Y002380D02*
X025363Y002980D01*
X024363Y002980D02*
X024363Y002380D01*
X024363Y001980D02*
X024363Y001380D01*
X023363Y001380D02*
X023363Y001980D01*
X023363Y002380D02*
X023363Y002980D01*
X022363Y002980D02*
X022363Y002380D01*
X022363Y001980D02*
X022363Y001380D01*
X013363Y001380D02*
X013363Y001980D01*
X012363Y001980D02*
X012363Y001380D01*
X011363Y001380D02*
X011363Y001980D01*
X010363Y001980D02*
X010363Y001380D01*
X009363Y001380D02*
X009363Y001980D01*
X008363Y001980D02*
X008363Y001380D01*
D14*
X018363Y001680D03*
D15*
X018363Y002680D03*
X019363Y002680D03*
X020363Y002680D03*
X020363Y001680D03*
X019363Y001680D03*
X009363Y008160D03*
X009363Y009250D03*
X008363Y009790D03*
X008363Y008700D03*
X009363Y010330D03*
X009363Y011420D03*
X009363Y012510D03*
X009363Y013590D03*
X009363Y014680D03*
X009363Y015770D03*
X008363Y016310D03*
X008363Y015220D03*
X008363Y014140D03*
X008363Y013050D03*
X008363Y011960D03*
X008363Y010880D03*
X009363Y016850D03*
X009363Y017940D03*
X009363Y019030D03*
X009363Y020110D03*
X009363Y021200D03*
X008363Y020660D03*
X008363Y019570D03*
X008363Y018480D03*
X008363Y017400D03*
D16*
X011363Y017680D03*
X011363Y016680D03*
X011363Y015680D03*
X011363Y014680D03*
X011363Y013680D03*
X011363Y012680D03*
X014363Y012680D03*
X014363Y013680D03*
X014363Y014680D03*
X014363Y015680D03*
X014363Y016680D03*
X014363Y017680D03*
X014363Y018680D03*
X014363Y019680D03*
X014363Y020680D03*
X014363Y021680D03*
X014363Y022680D03*
X014363Y023680D03*
X014363Y024680D03*
X014363Y025680D03*
X011363Y025680D03*
X011363Y024680D03*
X011363Y023680D03*
X011363Y022680D03*
X011363Y021680D03*
X011363Y020680D03*
X011363Y019680D03*
X011363Y018680D03*
D17*
X006363Y019601D03*
X008863Y023940D03*
X006363Y009759D03*
X008863Y005420D03*
D18*
X009084Y028180D03*
D19*
X007863Y026290D03*
X006682Y028180D03*
D20*
X021033Y028180D02*
X021693Y028180D01*
X021693Y026180D02*
X021033Y026180D01*
X026033Y026180D02*
X026693Y026180D01*
X026693Y028180D02*
X026033Y028180D01*
D21*
X011863Y011180D03*
X010863Y011180D03*
X010863Y010180D03*
X011863Y010180D03*
D22*
X018083Y007180D02*
X018643Y007180D01*
X018643Y006180D02*
X018083Y006180D01*
X018083Y005180D02*
X018643Y005180D01*
X016363Y001960D02*
X016363Y001400D01*
X015363Y001400D02*
X015363Y001960D01*
X037583Y025180D02*
X038143Y025180D01*
X038143Y026180D02*
X037583Y026180D01*
X008143Y030680D02*
X007583Y030680D01*
X007583Y031680D02*
X008143Y031680D01*
X008143Y032680D02*
X007583Y032680D01*
D23*
X013363Y029680D03*
X021863Y030180D03*
X025863Y030680D03*
X034863Y024180D03*
D24*
X035863Y024180D03*
X024863Y030680D03*
X020863Y030180D03*
X013363Y028680D03*
D25*
X016413Y023680D03*
X018313Y023680D03*
X033663Y028180D03*
X033663Y029180D03*
X033663Y030180D03*
X033663Y031180D03*
X036663Y031180D03*
X036663Y030180D03*
X036663Y029180D03*
X036663Y028180D03*
X036363Y021180D03*
X036363Y020180D03*
X036363Y019180D03*
X036363Y018180D03*
X039363Y018180D03*
X039363Y019180D03*
X039363Y020180D03*
X039363Y021180D03*
X039763Y013180D03*
X036363Y012580D03*
D26*
X032863Y002498D03*
X031863Y002498D03*
X030863Y002498D03*
X029863Y002498D03*
X029863Y001498D03*
X030863Y001498D03*
X031863Y001498D03*
X032863Y001498D03*
D27*
X029863Y015380D03*
X029863Y015980D03*
X029863Y017080D03*
X029863Y017680D03*
X029863Y018280D03*
X029863Y019580D03*
X029863Y020180D03*
X029863Y020780D03*
X032863Y018780D03*
X032863Y018180D03*
X032863Y017580D03*
X032863Y016480D03*
X032863Y015880D03*
D28*
X032863Y016180D03*
X029863Y015680D03*
D29*
X006922Y012499D03*
D30*
X006922Y013589D03*
X006922Y014680D03*
X006922Y015771D03*
X005804Y016314D03*
X005804Y015223D03*
X005804Y014137D03*
X005804Y013046D03*
X006922Y016861D03*
M02*
