G75*
%MOIN*%
%OFA0B0*%
%FSLAX24Y24*%
%IPPOS*%
%LPD*%
%AMOC8*
5,1,8,0,0,1.08239X$1,22.5*
%
%ADD10C,0.0160*%
%ADD11C,0.0030*%
%ADD12C,0.0060*%
%ADD13C,0.0100*%
%ADD14C,0.0050*%
%ADD15R,0.0200X0.0150*%
%ADD16R,0.0150X0.0200*%
%ADD17C,0.0080*%
%ADD18R,0.0300X1.6000*%
%ADD19R,0.0200X2.0900*%
%ADD20R,0.2850X0.0320*%
%ADD21R,0.1850X0.0320*%
%ADD22C,0.0070*%
%ADD23R,0.0250X0.1400*%
%ADD24R,0.0550X0.0300*%
%ADD25C,0.0020*%
%ADD26R,0.0140X0.0240*%
%ADD27C,0.0040*%
%ADD28C,0.0120*%
D10*
X016163Y022830D02*
X018563Y022830D01*
X018620Y022832D01*
X018676Y022838D01*
X018732Y022847D01*
X018788Y022860D01*
X018842Y022877D01*
X018895Y022897D01*
X018946Y022921D01*
X018996Y022949D01*
X019044Y022979D01*
X019090Y023013D01*
X019133Y023050D01*
X019174Y023089D01*
X019212Y023131D01*
X019247Y023176D01*
X019279Y023223D01*
X019308Y023272D01*
X019334Y023322D01*
X019356Y023375D01*
X019375Y023428D01*
X019390Y023483D01*
X019401Y023539D01*
X019409Y023595D01*
X019413Y023652D01*
X019413Y023708D01*
X019409Y023765D01*
X019401Y023821D01*
X019390Y023877D01*
X019375Y023932D01*
X019356Y023985D01*
X019334Y024038D01*
X019308Y024088D01*
X019279Y024137D01*
X019247Y024184D01*
X019212Y024229D01*
X019174Y024271D01*
X019133Y024310D01*
X019090Y024347D01*
X019044Y024381D01*
X018996Y024411D01*
X018946Y024439D01*
X018895Y024463D01*
X018842Y024483D01*
X018788Y024500D01*
X018732Y024513D01*
X018676Y024522D01*
X018620Y024528D01*
X018563Y024530D01*
X016163Y024530D01*
X016106Y024528D01*
X016050Y024522D01*
X015994Y024513D01*
X015938Y024500D01*
X015884Y024483D01*
X015831Y024463D01*
X015780Y024439D01*
X015730Y024411D01*
X015682Y024381D01*
X015636Y024347D01*
X015593Y024310D01*
X015552Y024271D01*
X015514Y024229D01*
X015479Y024184D01*
X015447Y024137D01*
X015418Y024088D01*
X015392Y024038D01*
X015370Y023985D01*
X015351Y023932D01*
X015336Y023877D01*
X015325Y023821D01*
X015317Y023765D01*
X015313Y023708D01*
X015313Y023652D01*
X015317Y023595D01*
X015325Y023539D01*
X015336Y023483D01*
X015351Y023428D01*
X015370Y023375D01*
X015392Y023322D01*
X015418Y023272D01*
X015447Y023223D01*
X015479Y023176D01*
X015514Y023131D01*
X015552Y023089D01*
X015593Y023050D01*
X015636Y023013D01*
X015682Y022979D01*
X015730Y022949D01*
X015780Y022921D01*
X015831Y022897D01*
X015884Y022877D01*
X015938Y022860D01*
X015994Y022847D01*
X016050Y022838D01*
X016106Y022832D01*
X016163Y022830D01*
X015363Y027680D02*
X015363Y033180D01*
X019363Y033180D01*
X019363Y027680D01*
X015363Y027680D01*
X029863Y033180D02*
X029863Y022180D01*
X038863Y022180D01*
X038863Y033180D01*
X029863Y033180D01*
D11*
X031628Y032285D02*
X031628Y032140D01*
X031725Y032188D01*
X031773Y032188D01*
X031822Y032140D01*
X031822Y032043D01*
X031773Y031995D01*
X031677Y031995D01*
X031628Y032043D01*
X031628Y032285D02*
X031822Y032285D01*
X031923Y032285D02*
X031923Y032092D01*
X032020Y031995D01*
X032116Y032092D01*
X032116Y032285D01*
X031773Y031285D02*
X031677Y031285D01*
X031628Y031237D01*
X031628Y031043D01*
X031677Y030995D01*
X031773Y030995D01*
X031822Y031043D01*
X031822Y031140D01*
X031725Y031140D01*
X031822Y031237D02*
X031773Y031285D01*
X031773Y030285D02*
X031677Y030285D01*
X031628Y030237D01*
X031628Y030188D01*
X031677Y030140D01*
X031773Y030140D01*
X031822Y030092D01*
X031822Y030043D01*
X031773Y029995D01*
X031677Y029995D01*
X031628Y030043D01*
X031822Y030237D02*
X031773Y030285D01*
X031923Y030285D02*
X031923Y029995D01*
X031923Y030140D02*
X032116Y030140D01*
X032116Y030285D02*
X032116Y029995D01*
X031773Y029285D02*
X031822Y029237D01*
X031822Y029140D01*
X031773Y029092D01*
X031628Y029092D01*
X031725Y029092D02*
X031822Y028995D01*
X031923Y029140D02*
X032116Y029140D01*
X031773Y029285D02*
X031628Y029285D01*
X031628Y028995D01*
X031628Y028285D02*
X031773Y028285D01*
X031822Y028237D01*
X031822Y028140D01*
X031773Y028092D01*
X031628Y028092D01*
X031725Y028092D02*
X031822Y027995D01*
X031923Y028140D02*
X032116Y028140D01*
X032020Y028237D02*
X032020Y028043D01*
X031628Y027995D02*
X031628Y028285D01*
X031628Y027285D02*
X031628Y026995D01*
X031822Y026995D01*
X031923Y027140D02*
X032116Y027140D01*
X032020Y027237D02*
X032020Y027043D01*
X031628Y026285D02*
X031628Y025995D01*
X031822Y025995D01*
X031923Y026140D02*
X032116Y026140D01*
X032068Y025285D02*
X031971Y025285D01*
X031923Y025237D01*
X031923Y025043D01*
X031971Y024995D01*
X032068Y024995D01*
X032116Y025043D01*
X032218Y024995D02*
X032411Y024995D01*
X032218Y024995D02*
X032218Y025285D01*
X032116Y025237D02*
X032068Y025285D01*
X031822Y025237D02*
X031773Y025285D01*
X031677Y025285D01*
X031628Y025237D01*
X031628Y025188D01*
X031677Y025140D01*
X031773Y025140D01*
X031822Y025092D01*
X031822Y025043D01*
X031773Y024995D01*
X031677Y024995D01*
X031628Y025043D01*
X031677Y024285D02*
X031628Y024237D01*
X031628Y024188D01*
X031677Y024140D01*
X031773Y024140D01*
X031822Y024092D01*
X031822Y024043D01*
X031773Y023995D01*
X031677Y023995D01*
X031628Y024043D01*
X031677Y024285D02*
X031773Y024285D01*
X031822Y024237D01*
X031923Y024285D02*
X032068Y024285D01*
X032116Y024237D01*
X032116Y024043D01*
X032068Y023995D01*
X031923Y023995D01*
X031923Y024285D01*
X032218Y024188D02*
X032218Y023995D01*
X032218Y024140D02*
X032411Y024140D01*
X032411Y024188D02*
X032411Y023995D01*
X032411Y024188D02*
X032314Y024285D01*
X032218Y024188D01*
X032225Y023285D02*
X032128Y023285D01*
X032177Y023285D02*
X032177Y022995D01*
X032225Y022995D02*
X032128Y022995D01*
X032325Y022995D02*
X032518Y023188D01*
X032518Y023237D01*
X032470Y023285D01*
X032373Y023285D01*
X032325Y023237D01*
X032325Y022995D02*
X032518Y022995D01*
X032619Y023043D02*
X032668Y022995D01*
X032764Y022995D01*
X032813Y023043D01*
X032914Y023140D02*
X033107Y023140D01*
X033209Y023092D02*
X033305Y022995D01*
X033402Y023092D01*
X033402Y023285D01*
X033503Y023237D02*
X033503Y023043D01*
X033552Y022995D01*
X033648Y022995D01*
X033697Y023043D01*
X033798Y023043D02*
X033846Y022995D01*
X033943Y022995D01*
X033991Y023043D01*
X033798Y023043D02*
X033798Y023237D01*
X033846Y023285D01*
X033943Y023285D01*
X033991Y023237D01*
X033697Y023237D02*
X033648Y023285D01*
X033552Y023285D01*
X033503Y023237D01*
X033209Y023285D02*
X033209Y023092D01*
X032813Y023237D02*
X032764Y023285D01*
X032668Y023285D01*
X032619Y023237D01*
X032619Y023043D01*
X036878Y025043D02*
X036927Y024995D01*
X037023Y024995D01*
X037072Y025043D01*
X037072Y025140D01*
X036975Y025140D01*
X036878Y025237D02*
X036878Y025043D01*
X036878Y025237D02*
X036927Y025285D01*
X037023Y025285D01*
X037072Y025237D01*
X037023Y025995D02*
X036927Y025995D01*
X036878Y026043D01*
X036927Y026140D02*
X037023Y026140D01*
X037072Y026092D01*
X037072Y026043D01*
X037023Y025995D01*
X036927Y026140D02*
X036878Y026188D01*
X036878Y026237D01*
X036927Y026285D01*
X037023Y026285D01*
X037072Y026237D01*
X039678Y011795D02*
X039823Y011795D01*
X039872Y011747D01*
X039872Y011650D01*
X039823Y011602D01*
X039678Y011602D01*
X039775Y011602D02*
X039872Y011505D01*
X039973Y011650D02*
X040118Y011795D01*
X040118Y011505D01*
X040166Y011650D02*
X039973Y011650D01*
X039678Y011505D02*
X039678Y011795D01*
X036978Y009794D02*
X036978Y009600D01*
X036785Y009794D01*
X036736Y009794D01*
X036688Y009745D01*
X036688Y009649D01*
X036736Y009600D01*
X036736Y009499D02*
X036833Y009499D01*
X036881Y009451D01*
X036881Y009306D01*
X036881Y009402D02*
X036978Y009499D01*
X036978Y009306D02*
X036688Y009306D01*
X036688Y009451D01*
X036736Y009499D01*
X036038Y008935D02*
X036038Y008838D01*
X035990Y008790D01*
X035893Y008790D02*
X035845Y008886D01*
X035845Y008935D01*
X035893Y008983D01*
X035990Y008983D01*
X036038Y008935D01*
X035893Y008790D02*
X035748Y008790D01*
X035748Y008983D01*
X035796Y008688D02*
X035893Y008688D01*
X035941Y008640D01*
X035941Y008495D01*
X035941Y008592D02*
X036038Y008688D01*
X036038Y008495D02*
X035748Y008495D01*
X035748Y008640D01*
X035796Y008688D01*
X037478Y007945D02*
X037623Y007800D01*
X037623Y007994D01*
X037768Y007945D02*
X037478Y007945D01*
X037526Y007699D02*
X037478Y007651D01*
X037478Y007554D01*
X037526Y007506D01*
X037720Y007506D01*
X037768Y007554D01*
X037768Y007651D01*
X037720Y007699D01*
X037978Y007537D02*
X037978Y007343D01*
X038027Y007295D01*
X038123Y007295D01*
X038172Y007343D01*
X038273Y007343D02*
X038321Y007295D01*
X038418Y007295D01*
X038466Y007343D01*
X038466Y007392D01*
X038418Y007440D01*
X038370Y007440D01*
X038418Y007440D02*
X038466Y007488D01*
X038466Y007537D01*
X038418Y007585D01*
X038321Y007585D01*
X038273Y007537D01*
X038172Y007537D02*
X038123Y007585D01*
X038027Y007585D01*
X037978Y007537D01*
X026861Y003737D02*
X026861Y003688D01*
X026813Y003640D01*
X026861Y003592D01*
X026861Y003543D01*
X026813Y003495D01*
X026716Y003495D01*
X026668Y003543D01*
X026566Y003592D02*
X026566Y003785D01*
X026668Y003737D02*
X026716Y003785D01*
X026813Y003785D01*
X026861Y003737D01*
X026813Y003640D02*
X026764Y003640D01*
X026566Y003592D02*
X026470Y003495D01*
X026373Y003592D01*
X026373Y003785D01*
X026272Y003737D02*
X026223Y003785D01*
X026127Y003785D01*
X026078Y003737D01*
X026175Y003640D02*
X026223Y003640D01*
X026272Y003592D01*
X026272Y003543D01*
X026223Y003495D01*
X026127Y003495D01*
X026078Y003543D01*
X026223Y003640D02*
X026272Y003688D01*
X026272Y003737D01*
X025661Y003688D02*
X025661Y003495D01*
X025661Y003640D02*
X025468Y003640D01*
X025468Y003688D02*
X025564Y003785D01*
X025661Y003688D01*
X025468Y003688D02*
X025468Y003495D01*
X025366Y003543D02*
X025366Y003737D01*
X025318Y003785D01*
X025173Y003785D01*
X025173Y003495D01*
X025318Y003495D01*
X025366Y003543D01*
X025072Y003543D02*
X025023Y003495D01*
X024927Y003495D01*
X024878Y003543D01*
X024927Y003640D02*
X025023Y003640D01*
X025072Y003592D01*
X025072Y003543D01*
X024927Y003640D02*
X024878Y003688D01*
X024878Y003737D01*
X024927Y003785D01*
X025023Y003785D01*
X025072Y003737D01*
X024661Y003495D02*
X024468Y003495D01*
X024468Y003785D01*
X024366Y003737D02*
X024318Y003785D01*
X024221Y003785D01*
X024173Y003737D01*
X024173Y003543D01*
X024221Y003495D01*
X024318Y003495D01*
X024366Y003543D01*
X024072Y003543D02*
X024023Y003495D01*
X023927Y003495D01*
X023878Y003543D01*
X023927Y003640D02*
X024023Y003640D01*
X024072Y003592D01*
X024072Y003543D01*
X023927Y003640D02*
X023878Y003688D01*
X023878Y003737D01*
X023927Y003785D01*
X024023Y003785D01*
X024072Y003737D01*
X023372Y003737D02*
X023323Y003785D01*
X023227Y003785D01*
X023178Y003737D01*
X023178Y003543D01*
X023227Y003495D01*
X023323Y003495D01*
X023372Y003543D01*
X023372Y003640D01*
X023275Y003640D01*
X022616Y003592D02*
X022616Y003785D01*
X022423Y003785D02*
X022423Y003592D01*
X022520Y003495D01*
X022616Y003592D01*
X022322Y003640D02*
X022322Y003543D01*
X022273Y003495D01*
X022177Y003495D01*
X022128Y003543D01*
X022128Y003640D02*
X022225Y003688D01*
X022273Y003688D01*
X022322Y003640D01*
X022322Y003785D02*
X022128Y003785D01*
X022128Y003640D01*
X020372Y003640D02*
X020275Y003640D01*
X020372Y003640D02*
X020372Y003543D01*
X020323Y003495D01*
X020227Y003495D01*
X020178Y003543D01*
X020178Y003737D01*
X020227Y003785D01*
X020323Y003785D01*
X020372Y003737D01*
X019498Y003788D02*
X019450Y003740D01*
X019256Y003740D01*
X019208Y003788D01*
X019208Y003885D01*
X019256Y003933D01*
X019450Y003933D01*
X019498Y003885D01*
X019498Y003788D01*
X019498Y003638D02*
X019208Y003638D01*
X019305Y003542D01*
X019208Y003445D01*
X019498Y003445D01*
X019450Y004034D02*
X019498Y004083D01*
X019498Y004179D01*
X019450Y004228D01*
X019401Y004228D01*
X019353Y004179D01*
X019353Y004083D01*
X019305Y004034D01*
X019256Y004034D01*
X019208Y004083D01*
X019208Y004179D01*
X019256Y004228D01*
X019208Y004329D02*
X019208Y004426D01*
X019208Y004377D02*
X019498Y004377D01*
X019498Y004329D02*
X019498Y004426D01*
X018616Y003785D02*
X018616Y003592D01*
X018520Y003495D01*
X018423Y003592D01*
X018423Y003785D01*
X018322Y003785D02*
X018128Y003785D01*
X018128Y003640D01*
X018225Y003688D01*
X018273Y003688D01*
X018322Y003640D01*
X018322Y003543D01*
X018273Y003495D01*
X018177Y003495D01*
X018128Y003543D01*
X012616Y002785D02*
X012423Y002495D01*
X012616Y002495D02*
X012423Y002785D01*
X012322Y002785D02*
X012128Y002785D01*
X012225Y002785D02*
X012225Y002495D01*
X011616Y002495D02*
X011423Y002785D01*
X011322Y002737D02*
X011322Y002640D01*
X011273Y002592D01*
X011128Y002592D01*
X011225Y002592D02*
X011322Y002495D01*
X011423Y002495D02*
X011616Y002785D01*
X011322Y002737D02*
X011273Y002785D01*
X011128Y002785D01*
X011128Y002495D01*
X010616Y002592D02*
X010616Y002785D01*
X010423Y002785D02*
X010423Y002592D01*
X010520Y002495D01*
X010616Y002592D01*
X010322Y002640D02*
X010322Y002543D01*
X010273Y002495D01*
X010177Y002495D01*
X010128Y002543D01*
X010128Y002640D02*
X010225Y002688D01*
X010273Y002688D01*
X010322Y002640D01*
X010322Y002785D02*
X010128Y002785D01*
X010128Y002640D01*
X009661Y002592D02*
X009661Y002543D01*
X009613Y002495D01*
X009516Y002495D01*
X009468Y002543D01*
X009516Y002640D02*
X009613Y002640D01*
X009661Y002592D01*
X009661Y002737D02*
X009613Y002785D01*
X009516Y002785D01*
X009468Y002737D01*
X009468Y002688D01*
X009516Y002640D01*
X009366Y002785D02*
X009173Y002785D01*
X009270Y002785D02*
X009270Y002495D01*
X009072Y002495D02*
X008975Y002592D01*
X009023Y002592D02*
X008878Y002592D01*
X008878Y002495D02*
X008878Y002785D01*
X009023Y002785D01*
X009072Y002737D01*
X009072Y002640D01*
X009023Y002592D01*
X008372Y002640D02*
X008275Y002640D01*
X008372Y002640D02*
X008372Y002543D01*
X008323Y002495D01*
X008227Y002495D01*
X008178Y002543D01*
X008178Y002737D01*
X008227Y002785D01*
X008323Y002785D01*
X008372Y002737D01*
X010308Y003343D02*
X010356Y003295D01*
X010405Y003295D01*
X010453Y003343D01*
X010453Y003440D01*
X010501Y003488D01*
X010550Y003488D01*
X010598Y003440D01*
X010598Y003343D01*
X010550Y003295D01*
X010308Y003343D02*
X010308Y003440D01*
X010356Y003488D01*
X010308Y003686D02*
X010308Y003783D01*
X010308Y003735D02*
X010550Y003735D01*
X010598Y003686D01*
X010598Y003638D01*
X010550Y003590D01*
X010550Y003884D02*
X010356Y004078D01*
X010308Y004078D01*
X010308Y003884D01*
X010550Y003884D02*
X010598Y003884D01*
X010550Y004295D02*
X010598Y004343D01*
X010598Y004440D01*
X010550Y004488D01*
X010501Y004488D01*
X010453Y004440D01*
X010453Y004343D01*
X010405Y004295D01*
X010356Y004295D01*
X010308Y004343D01*
X010308Y004440D01*
X010356Y004488D01*
X010308Y004686D02*
X010308Y004783D01*
X010308Y004735D02*
X010550Y004735D01*
X010598Y004686D01*
X010598Y004638D01*
X010550Y004590D01*
X010550Y004884D02*
X010501Y004884D01*
X010453Y004933D01*
X010453Y005029D01*
X010501Y005078D01*
X010550Y005078D01*
X010598Y005029D01*
X010598Y004933D01*
X010550Y004884D01*
X010453Y004933D02*
X010405Y004884D01*
X010356Y004884D01*
X010308Y004933D01*
X010308Y005029D01*
X010356Y005078D01*
X010405Y005078D01*
X010453Y005029D01*
X010150Y027845D02*
X009956Y027845D01*
X009908Y027893D01*
X009908Y027990D01*
X009956Y028038D01*
X010005Y028140D02*
X009908Y028236D01*
X010198Y028236D01*
X010198Y028140D02*
X010198Y028333D01*
X010150Y028434D02*
X010198Y028483D01*
X010198Y028579D01*
X010150Y028628D01*
X010053Y028628D01*
X010005Y028579D01*
X010005Y028531D01*
X010053Y028434D01*
X009908Y028434D01*
X009908Y028628D01*
X010150Y028038D02*
X010198Y027990D01*
X010198Y027893D01*
X010150Y027845D01*
X008887Y030695D02*
X008948Y030757D01*
X008948Y030880D01*
X008887Y030942D01*
X008763Y030942D01*
X008701Y030880D01*
X008701Y030818D01*
X008763Y030695D01*
X008578Y030695D01*
X008578Y030942D01*
X008578Y031063D02*
X008825Y031063D01*
X008948Y031187D01*
X008825Y031310D01*
X008578Y031310D01*
X008640Y032195D02*
X008701Y032195D01*
X008763Y032257D01*
X008763Y032442D01*
X008640Y032442D02*
X008578Y032380D01*
X008578Y032257D01*
X008640Y032195D01*
X008887Y032195D02*
X008948Y032257D01*
X008948Y032380D01*
X008887Y032442D01*
X008640Y032442D01*
X008578Y032563D02*
X008825Y032563D01*
X008948Y032687D01*
X008825Y032810D01*
X008578Y032810D01*
X016258Y029433D02*
X016451Y029433D01*
X016548Y029336D01*
X016451Y029240D01*
X016258Y029240D01*
X016306Y029138D02*
X016258Y029090D01*
X016258Y028993D01*
X016306Y028945D01*
X016355Y028945D01*
X016403Y028993D01*
X016403Y029138D01*
X016500Y029138D02*
X016306Y029138D01*
X016500Y029138D02*
X016548Y029090D01*
X016548Y028993D01*
X016500Y028945D01*
X017258Y028993D02*
X017306Y028945D01*
X017500Y028945D01*
X017548Y028993D01*
X017548Y029090D01*
X017500Y029138D01*
X017403Y029138D01*
X017403Y029042D01*
X017306Y029138D02*
X017258Y029090D01*
X017258Y028993D01*
X018258Y028945D02*
X018403Y028945D01*
X018355Y029042D01*
X018355Y029090D01*
X018403Y029138D01*
X018500Y029138D01*
X018548Y029090D01*
X018548Y028993D01*
X018500Y028945D01*
X018258Y028945D02*
X018258Y029138D01*
X018258Y029240D02*
X018451Y029240D01*
X018548Y029336D01*
X018451Y029433D01*
X018258Y029433D01*
D12*
X004263Y007280D02*
X004263Y004230D01*
X004463Y004230D01*
X004463Y005230D01*
X004463Y006230D01*
X004463Y023130D01*
X004663Y023130D01*
X004663Y023080D01*
X005613Y023080D01*
X005643Y023078D01*
X005673Y023073D01*
X005702Y023064D01*
X005729Y023051D01*
X005755Y023036D01*
X005779Y023017D01*
X005800Y022996D01*
X005819Y022972D01*
X005834Y022946D01*
X005847Y022919D01*
X005856Y022890D01*
X005861Y022860D01*
X005863Y022830D01*
X005863Y022780D02*
X009913Y022780D01*
X010113Y022980D01*
X010113Y024930D01*
X009913Y025130D01*
X005913Y025130D01*
X005863Y025130D01*
X005863Y023130D01*
X005863Y022780D01*
X005863Y022680D01*
X006163Y022680D01*
X006163Y006680D01*
X005863Y006680D01*
X005863Y022680D01*
X004463Y023130D02*
X004463Y024130D01*
X004463Y025130D01*
X004663Y025130D01*
X005863Y025130D01*
X004463Y025130D02*
X004263Y025130D01*
X004263Y022080D01*
X004263Y007280D01*
X004013Y007130D02*
X002013Y007130D01*
X001987Y007132D01*
X001961Y007137D01*
X001936Y007145D01*
X001913Y007157D01*
X001891Y007171D01*
X001872Y007189D01*
X001854Y007208D01*
X001840Y007230D01*
X001828Y007253D01*
X001820Y007278D01*
X001815Y007304D01*
X001813Y007330D01*
X001813Y007430D01*
X001813Y021930D01*
X001813Y022030D01*
X001815Y022056D01*
X001820Y022082D01*
X001828Y022107D01*
X001840Y022130D01*
X001854Y022152D01*
X001872Y022171D01*
X001891Y022189D01*
X001913Y022203D01*
X001936Y022215D01*
X001961Y022223D01*
X001987Y022228D01*
X002013Y022230D01*
X004013Y022230D01*
X004043Y022232D01*
X004073Y022237D01*
X004102Y022246D01*
X004129Y022259D01*
X004155Y022274D01*
X004179Y022293D01*
X004200Y022314D01*
X004219Y022338D01*
X004234Y022364D01*
X004247Y022391D01*
X004256Y022420D01*
X004261Y022450D01*
X004263Y022480D01*
X008213Y023940D02*
X008215Y023990D01*
X008221Y024040D01*
X008231Y024090D01*
X008244Y024138D01*
X008261Y024186D01*
X008282Y024232D01*
X008306Y024276D01*
X008334Y024318D01*
X008365Y024358D01*
X008399Y024395D01*
X008436Y024430D01*
X008475Y024461D01*
X008516Y024490D01*
X008560Y024515D01*
X008606Y024537D01*
X008653Y024555D01*
X008701Y024569D01*
X008750Y024580D01*
X008800Y024587D01*
X008850Y024590D01*
X008901Y024589D01*
X008951Y024584D01*
X009001Y024575D01*
X009049Y024563D01*
X009097Y024546D01*
X009143Y024526D01*
X009188Y024503D01*
X009231Y024476D01*
X009271Y024446D01*
X009309Y024413D01*
X009344Y024377D01*
X009377Y024338D01*
X009406Y024297D01*
X009432Y024254D01*
X009455Y024209D01*
X009474Y024162D01*
X009489Y024114D01*
X009501Y024065D01*
X009509Y024015D01*
X009513Y023965D01*
X009513Y023915D01*
X009509Y023865D01*
X009501Y023815D01*
X009489Y023766D01*
X009474Y023718D01*
X009455Y023671D01*
X009432Y023626D01*
X009406Y023583D01*
X009377Y023542D01*
X009344Y023503D01*
X009309Y023467D01*
X009271Y023434D01*
X009231Y023404D01*
X009188Y023377D01*
X009143Y023354D01*
X009097Y023334D01*
X009049Y023317D01*
X009001Y023305D01*
X008951Y023296D01*
X008901Y023291D01*
X008850Y023290D01*
X008800Y023293D01*
X008750Y023300D01*
X008701Y023311D01*
X008653Y023325D01*
X008606Y023343D01*
X008560Y023365D01*
X008516Y023390D01*
X008475Y023419D01*
X008436Y023450D01*
X008399Y023485D01*
X008365Y023522D01*
X008334Y023562D01*
X008306Y023604D01*
X008282Y023648D01*
X008261Y023694D01*
X008244Y023742D01*
X008231Y023790D01*
X008221Y023840D01*
X008215Y023890D01*
X008213Y023940D01*
X009963Y020130D02*
X010763Y020130D01*
X010780Y020128D01*
X010797Y020124D01*
X010813Y020117D01*
X010827Y020107D01*
X010840Y020094D01*
X010850Y020080D01*
X010857Y020064D01*
X010861Y020047D01*
X010863Y020030D01*
X010863Y018330D01*
X010861Y018313D01*
X010857Y018296D01*
X010850Y018280D01*
X010840Y018266D01*
X010827Y018253D01*
X010813Y018243D01*
X010797Y018236D01*
X010780Y018232D01*
X010763Y018230D01*
X009963Y018230D01*
X009946Y018232D01*
X009929Y018236D01*
X009913Y018243D01*
X009899Y018253D01*
X009886Y018266D01*
X009876Y018280D01*
X009869Y018296D01*
X009865Y018313D01*
X009863Y018330D01*
X009863Y020030D01*
X009865Y020047D01*
X009869Y020064D01*
X009876Y020080D01*
X009886Y020094D01*
X009899Y020107D01*
X009913Y020117D01*
X009929Y020124D01*
X009946Y020128D01*
X009963Y020130D01*
X010363Y019330D02*
X010363Y019280D01*
X010363Y019080D02*
X010363Y019030D01*
X014863Y019530D02*
X014863Y017830D01*
X014865Y017813D01*
X014869Y017796D01*
X014876Y017780D01*
X014886Y017766D01*
X014899Y017753D01*
X014913Y017743D01*
X014929Y017736D01*
X014946Y017732D01*
X014963Y017730D01*
X015763Y017730D01*
X015780Y017732D01*
X015797Y017736D01*
X015813Y017743D01*
X015827Y017753D01*
X015840Y017766D01*
X015850Y017780D01*
X015857Y017796D01*
X015861Y017813D01*
X015863Y017830D01*
X015863Y019530D01*
X015861Y019547D01*
X015857Y019564D01*
X015850Y019580D01*
X015840Y019594D01*
X015827Y019607D01*
X015813Y019617D01*
X015797Y019624D01*
X015780Y019628D01*
X015763Y019630D01*
X014963Y019630D01*
X014946Y019628D01*
X014929Y019624D01*
X014913Y019617D01*
X014899Y019607D01*
X014886Y019594D01*
X014876Y019580D01*
X014869Y019564D01*
X014865Y019547D01*
X014863Y019530D01*
X014963Y020230D02*
X015763Y020230D01*
X015780Y020232D01*
X015797Y020236D01*
X015813Y020243D01*
X015827Y020253D01*
X015840Y020266D01*
X015850Y020280D01*
X015857Y020296D01*
X015861Y020313D01*
X015863Y020330D01*
X015863Y022030D01*
X015861Y022047D01*
X015857Y022064D01*
X015850Y022080D01*
X015840Y022094D01*
X015827Y022107D01*
X015813Y022117D01*
X015797Y022124D01*
X015780Y022128D01*
X015763Y022130D01*
X014963Y022130D01*
X014946Y022128D01*
X014929Y022124D01*
X014913Y022117D01*
X014899Y022107D01*
X014886Y022094D01*
X014876Y022080D01*
X014869Y022064D01*
X014865Y022047D01*
X014863Y022030D01*
X014863Y020330D01*
X014865Y020313D01*
X014869Y020296D01*
X014876Y020280D01*
X014886Y020266D01*
X014899Y020253D01*
X014913Y020243D01*
X014929Y020236D01*
X014946Y020232D01*
X014963Y020230D01*
X015363Y021030D02*
X015363Y021080D01*
X015363Y021280D02*
X015363Y021330D01*
X016863Y021480D02*
X016863Y020880D01*
X016865Y020863D01*
X016869Y020846D01*
X016876Y020830D01*
X016886Y020816D01*
X016899Y020803D01*
X016913Y020793D01*
X016929Y020786D01*
X016946Y020782D01*
X016963Y020780D01*
X017113Y020780D01*
X017163Y020830D01*
X018563Y020830D01*
X018613Y020780D01*
X018763Y020780D01*
X018780Y020782D01*
X018797Y020786D01*
X018813Y020793D01*
X018827Y020803D01*
X018840Y020816D01*
X018850Y020830D01*
X018857Y020846D01*
X018861Y020863D01*
X018863Y020880D01*
X018863Y021480D01*
X018861Y021497D01*
X018857Y021514D01*
X018850Y021530D01*
X018840Y021544D01*
X018827Y021557D01*
X018813Y021567D01*
X018797Y021574D01*
X018780Y021578D01*
X018763Y021580D01*
X018613Y021580D01*
X018563Y021530D01*
X017163Y021530D01*
X017113Y021580D01*
X016963Y021580D01*
X016946Y021578D01*
X016929Y021574D01*
X016913Y021567D01*
X016899Y021557D01*
X016886Y021544D01*
X016876Y021530D01*
X016869Y021514D01*
X016865Y021497D01*
X016863Y021480D01*
X016963Y021780D02*
X017113Y021780D01*
X017163Y021830D01*
X018563Y021830D01*
X018613Y021780D01*
X018763Y021780D01*
X018780Y021782D01*
X018797Y021786D01*
X018813Y021793D01*
X018827Y021803D01*
X018840Y021816D01*
X018850Y021830D01*
X018857Y021846D01*
X018861Y021863D01*
X018863Y021880D01*
X018863Y022480D01*
X018861Y022497D01*
X018857Y022514D01*
X018850Y022530D01*
X018840Y022544D01*
X018827Y022557D01*
X018813Y022567D01*
X018797Y022574D01*
X018780Y022578D01*
X018763Y022580D01*
X018613Y022580D01*
X018563Y022530D01*
X017163Y022530D01*
X017113Y022580D01*
X016963Y022580D01*
X016946Y022578D01*
X016929Y022574D01*
X016913Y022567D01*
X016899Y022557D01*
X016886Y022544D01*
X016876Y022530D01*
X016869Y022514D01*
X016865Y022497D01*
X016863Y022480D01*
X016863Y021880D01*
X016865Y021863D01*
X016869Y021846D01*
X016876Y021830D01*
X016886Y021816D01*
X016899Y021803D01*
X016913Y021793D01*
X016929Y021786D01*
X016946Y021782D01*
X016963Y021780D01*
X016163Y023030D02*
X018563Y023030D01*
X018613Y023032D01*
X018662Y023038D01*
X018711Y023047D01*
X018759Y023060D01*
X018806Y023077D01*
X018851Y023097D01*
X018895Y023121D01*
X018937Y023148D01*
X018977Y023179D01*
X019014Y023212D01*
X019048Y023248D01*
X019080Y023286D01*
X019109Y023327D01*
X019134Y023369D01*
X019156Y023414D01*
X019175Y023460D01*
X019190Y023508D01*
X019201Y023556D01*
X019209Y023605D01*
X019213Y023655D01*
X019213Y023705D01*
X019209Y023755D01*
X019201Y023804D01*
X019190Y023852D01*
X019175Y023900D01*
X019156Y023946D01*
X019134Y023991D01*
X019109Y024033D01*
X019080Y024074D01*
X019048Y024112D01*
X019014Y024148D01*
X018977Y024181D01*
X018937Y024212D01*
X018895Y024239D01*
X018851Y024263D01*
X018806Y024283D01*
X018759Y024300D01*
X018711Y024313D01*
X018662Y024322D01*
X018613Y024328D01*
X018563Y024330D01*
X016163Y024330D01*
X016113Y024328D01*
X016064Y024322D01*
X016015Y024313D01*
X015967Y024300D01*
X015920Y024283D01*
X015875Y024263D01*
X015831Y024239D01*
X015789Y024212D01*
X015749Y024181D01*
X015712Y024148D01*
X015678Y024112D01*
X015646Y024074D01*
X015617Y024033D01*
X015592Y023991D01*
X015570Y023946D01*
X015551Y023900D01*
X015536Y023852D01*
X015525Y023804D01*
X015517Y023755D01*
X015513Y023705D01*
X015513Y023655D01*
X015517Y023605D01*
X015525Y023556D01*
X015536Y023508D01*
X015551Y023460D01*
X015570Y023414D01*
X015592Y023369D01*
X015617Y023327D01*
X015646Y023286D01*
X015678Y023248D01*
X015712Y023212D01*
X015749Y023179D01*
X015789Y023148D01*
X015831Y023121D01*
X015875Y023097D01*
X015920Y023077D01*
X015967Y023060D01*
X016015Y023047D01*
X016064Y023038D01*
X016113Y023032D01*
X016163Y023030D01*
X016863Y023680D02*
X017113Y023680D01*
X017113Y023380D01*
X017263Y023380D02*
X017263Y023980D01*
X017463Y023980D01*
X017463Y023380D01*
X017263Y023380D01*
X017113Y023680D02*
X017113Y023980D01*
X017613Y023980D02*
X017613Y023680D01*
X017863Y023680D01*
X017613Y023680D02*
X017613Y023380D01*
X017513Y024680D02*
X019213Y024680D01*
X019230Y024682D01*
X019247Y024686D01*
X019263Y024693D01*
X019277Y024703D01*
X019290Y024716D01*
X019300Y024730D01*
X019307Y024746D01*
X019311Y024763D01*
X019313Y024780D01*
X019313Y025580D01*
X019311Y025597D01*
X019307Y025614D01*
X019300Y025630D01*
X019290Y025644D01*
X019277Y025657D01*
X019263Y025667D01*
X019247Y025674D01*
X019230Y025678D01*
X019213Y025680D01*
X017513Y025680D01*
X017496Y025678D01*
X017479Y025674D01*
X017463Y025667D01*
X017449Y025657D01*
X017436Y025644D01*
X017426Y025630D01*
X017419Y025614D01*
X017415Y025597D01*
X017413Y025580D01*
X017413Y024780D01*
X017313Y024780D02*
X017313Y025580D01*
X017311Y025597D01*
X017307Y025614D01*
X017300Y025630D01*
X017290Y025644D01*
X017277Y025657D01*
X017263Y025667D01*
X017247Y025674D01*
X017230Y025678D01*
X017213Y025680D01*
X015513Y025680D01*
X015496Y025678D01*
X015479Y025674D01*
X015463Y025667D01*
X015449Y025657D01*
X015436Y025644D01*
X015426Y025630D01*
X015419Y025614D01*
X015415Y025597D01*
X015413Y025580D01*
X015413Y024780D01*
X015415Y024763D01*
X015419Y024746D01*
X015426Y024730D01*
X015436Y024716D01*
X015449Y024703D01*
X015463Y024693D01*
X015479Y024686D01*
X015496Y024682D01*
X015513Y024680D01*
X017213Y024680D01*
X017230Y024682D01*
X017247Y024686D01*
X017263Y024693D01*
X017277Y024703D01*
X017290Y024716D01*
X017300Y024730D01*
X017307Y024746D01*
X017311Y024763D01*
X017313Y024780D01*
X017413Y024780D02*
X017415Y024763D01*
X017419Y024746D01*
X017426Y024730D01*
X017436Y024716D01*
X017449Y024703D01*
X017463Y024693D01*
X017479Y024686D01*
X017496Y024682D01*
X017513Y024680D01*
X018213Y025180D02*
X018263Y025180D01*
X018463Y025180D02*
X018513Y025180D01*
X018713Y026680D02*
X017013Y026680D01*
X016996Y026682D01*
X016979Y026686D01*
X016963Y026693D01*
X016949Y026703D01*
X016936Y026716D01*
X016926Y026730D01*
X016919Y026746D01*
X016915Y026763D01*
X016913Y026780D01*
X016913Y027580D01*
X016915Y027597D01*
X016919Y027614D01*
X016926Y027630D01*
X016936Y027644D01*
X016949Y027657D01*
X016963Y027667D01*
X016979Y027674D01*
X016996Y027678D01*
X017013Y027680D01*
X018713Y027680D01*
X018613Y027680D02*
X018113Y027680D01*
X017863Y027930D01*
X017613Y027680D01*
X017113Y027680D01*
X016863Y027930D01*
X016613Y027680D01*
X016113Y027680D01*
X015863Y027930D01*
X015863Y028430D01*
X016113Y028680D01*
X016613Y028680D01*
X016863Y028430D01*
X017113Y028680D01*
X017613Y028680D01*
X017863Y028430D01*
X018113Y028680D01*
X018613Y028680D01*
X018863Y028430D01*
X018863Y027930D01*
X018613Y027680D01*
X018713Y027680D02*
X018730Y027678D01*
X018747Y027674D01*
X018763Y027667D01*
X018777Y027657D01*
X018790Y027644D01*
X018800Y027630D01*
X018807Y027614D01*
X018811Y027597D01*
X018813Y027580D01*
X018813Y026780D01*
X018811Y026763D01*
X018807Y026746D01*
X018800Y026730D01*
X018790Y026716D01*
X018777Y026703D01*
X018763Y026693D01*
X018747Y026686D01*
X018730Y026682D01*
X018713Y026680D01*
X018013Y027180D02*
X017963Y027180D01*
X017763Y027180D02*
X017713Y027180D01*
X016513Y025180D02*
X016463Y025180D01*
X016263Y025180D02*
X016213Y025180D01*
X013363Y027980D02*
X013363Y028280D01*
X013513Y028130D02*
X013213Y028130D01*
X012013Y029180D02*
X012015Y029253D01*
X012021Y029326D01*
X012031Y029398D01*
X012045Y029470D01*
X012062Y029541D01*
X012084Y029611D01*
X012109Y029680D01*
X012138Y029747D01*
X012170Y029812D01*
X012206Y029876D01*
X012246Y029938D01*
X012288Y029997D01*
X012334Y030054D01*
X012383Y030108D01*
X012435Y030160D01*
X012489Y030209D01*
X012546Y030255D01*
X012605Y030297D01*
X012667Y030337D01*
X012731Y030373D01*
X012796Y030405D01*
X012863Y030434D01*
X012932Y030459D01*
X013002Y030481D01*
X013073Y030498D01*
X013145Y030512D01*
X013217Y030522D01*
X013290Y030528D01*
X013363Y030530D01*
X013436Y030528D01*
X013509Y030522D01*
X013581Y030512D01*
X013653Y030498D01*
X013724Y030481D01*
X013794Y030459D01*
X013863Y030434D01*
X013930Y030405D01*
X013995Y030373D01*
X014059Y030337D01*
X014121Y030297D01*
X014180Y030255D01*
X014237Y030209D01*
X014291Y030160D01*
X014343Y030108D01*
X014392Y030054D01*
X014438Y029997D01*
X014480Y029938D01*
X014520Y029876D01*
X014556Y029812D01*
X014588Y029747D01*
X014617Y029680D01*
X014642Y029611D01*
X014664Y029541D01*
X014681Y029470D01*
X014695Y029398D01*
X014705Y029326D01*
X014711Y029253D01*
X014713Y029180D01*
X014711Y029107D01*
X014705Y029034D01*
X014695Y028962D01*
X014681Y028890D01*
X014664Y028819D01*
X014642Y028749D01*
X014617Y028680D01*
X014588Y028613D01*
X014556Y028548D01*
X014520Y028484D01*
X014480Y028422D01*
X014438Y028363D01*
X014392Y028306D01*
X014343Y028252D01*
X014291Y028200D01*
X014237Y028151D01*
X014180Y028105D01*
X014121Y028063D01*
X014059Y028023D01*
X013995Y027987D01*
X013930Y027955D01*
X013863Y027926D01*
X013794Y027901D01*
X013724Y027879D01*
X013653Y027862D01*
X013581Y027848D01*
X013509Y027838D01*
X013436Y027832D01*
X013363Y027830D01*
X013290Y027832D01*
X013217Y027838D01*
X013145Y027848D01*
X013073Y027862D01*
X013002Y027879D01*
X012932Y027901D01*
X012863Y027926D01*
X012796Y027955D01*
X012731Y027987D01*
X012667Y028023D01*
X012605Y028063D01*
X012546Y028105D01*
X012489Y028151D01*
X012435Y028200D01*
X012383Y028252D01*
X012334Y028306D01*
X012288Y028363D01*
X012246Y028422D01*
X012206Y028484D01*
X012170Y028548D01*
X012138Y028613D01*
X012109Y028680D01*
X012084Y028749D01*
X012062Y028819D01*
X012045Y028890D01*
X012031Y028962D01*
X012021Y029034D01*
X012015Y029107D01*
X012013Y029180D01*
X010863Y029060D02*
X010863Y028580D01*
X010863Y029310D02*
X010863Y029780D01*
X010363Y030530D02*
X010365Y030547D01*
X010369Y030564D01*
X010376Y030580D01*
X010386Y030594D01*
X010399Y030607D01*
X010413Y030617D01*
X010429Y030624D01*
X010446Y030628D01*
X010463Y030630D01*
X011263Y030630D01*
X011280Y030628D01*
X011297Y030624D01*
X011313Y030617D01*
X011327Y030607D01*
X011340Y030594D01*
X011350Y030580D01*
X011357Y030564D01*
X011361Y030547D01*
X011363Y030530D01*
X011363Y027830D01*
X011361Y027813D01*
X011357Y027796D01*
X011350Y027780D01*
X011340Y027766D01*
X011327Y027753D01*
X011313Y027743D01*
X011297Y027736D01*
X011280Y027732D01*
X011263Y027730D01*
X010463Y027730D01*
X010446Y027732D01*
X010429Y027736D01*
X010413Y027743D01*
X010399Y027753D01*
X010386Y027766D01*
X010376Y027780D01*
X010369Y027796D01*
X010365Y027813D01*
X010363Y027830D01*
X010363Y030530D01*
X011863Y030880D02*
X011863Y031480D01*
X011865Y031497D01*
X011869Y031514D01*
X011876Y031530D01*
X011886Y031544D01*
X011899Y031557D01*
X011913Y031567D01*
X011929Y031574D01*
X011946Y031578D01*
X011963Y031580D01*
X012113Y031580D01*
X012163Y031530D01*
X013563Y031530D01*
X013613Y031580D01*
X013763Y031580D01*
X013780Y031578D01*
X013797Y031574D01*
X013813Y031567D01*
X013827Y031557D01*
X013840Y031544D01*
X013850Y031530D01*
X013857Y031514D01*
X013861Y031497D01*
X013863Y031480D01*
X013863Y030880D01*
X013861Y030863D01*
X013857Y030846D01*
X013850Y030830D01*
X013840Y030816D01*
X013827Y030803D01*
X013813Y030793D01*
X013797Y030786D01*
X013780Y030782D01*
X013763Y030780D01*
X013613Y030780D01*
X013563Y030830D01*
X012163Y030830D01*
X012113Y030780D01*
X011963Y030780D01*
X011946Y030782D01*
X011929Y030786D01*
X011913Y030793D01*
X011899Y030803D01*
X011886Y030816D01*
X011876Y030830D01*
X011869Y030846D01*
X011865Y030863D01*
X011863Y030880D01*
X011763Y032180D02*
X011263Y032180D01*
X011363Y032280D01*
X012363Y032280D01*
X012463Y032180D01*
X012963Y032180D01*
X013263Y032480D01*
X013363Y032480D01*
X013363Y032880D01*
X013263Y032880D01*
X012963Y033180D01*
X012463Y033180D01*
X012363Y033080D01*
X011363Y033080D01*
X011263Y033180D01*
X010763Y033180D01*
X010463Y032880D01*
X010363Y032880D01*
X010363Y032480D01*
X010463Y032480D01*
X010763Y032180D01*
X011263Y032180D01*
X010963Y032480D01*
X010863Y032480D01*
X010863Y032880D01*
X010963Y032880D01*
X011263Y033180D01*
X011763Y033180D01*
X011863Y033080D01*
X011963Y033180D01*
X012463Y033180D01*
X012763Y032880D01*
X012863Y032880D01*
X012863Y032480D01*
X012763Y032480D01*
X012463Y032180D01*
X011963Y032180D01*
X011863Y032280D01*
X011763Y032180D01*
X008363Y032080D02*
X008363Y031280D01*
X008263Y031180D01*
X008363Y031080D01*
X008363Y030280D01*
X008263Y030180D01*
X007463Y030180D01*
X007363Y030280D01*
X007363Y031080D01*
X007463Y031180D01*
X007363Y031280D01*
X007363Y032080D01*
X007463Y032180D01*
X007363Y032280D01*
X007363Y033080D01*
X007463Y033180D01*
X008263Y033180D01*
X008363Y033080D01*
X008363Y032280D01*
X008263Y032180D01*
X008363Y032080D01*
X020163Y030180D02*
X020463Y030180D01*
X020313Y030030D02*
X020313Y030330D01*
X020013Y030180D02*
X020015Y030253D01*
X020021Y030326D01*
X020031Y030398D01*
X020045Y030470D01*
X020062Y030541D01*
X020084Y030611D01*
X020109Y030680D01*
X020138Y030747D01*
X020170Y030812D01*
X020206Y030876D01*
X020246Y030938D01*
X020288Y030997D01*
X020334Y031054D01*
X020383Y031108D01*
X020435Y031160D01*
X020489Y031209D01*
X020546Y031255D01*
X020605Y031297D01*
X020667Y031337D01*
X020731Y031373D01*
X020796Y031405D01*
X020863Y031434D01*
X020932Y031459D01*
X021002Y031481D01*
X021073Y031498D01*
X021145Y031512D01*
X021217Y031522D01*
X021290Y031528D01*
X021363Y031530D01*
X021436Y031528D01*
X021509Y031522D01*
X021581Y031512D01*
X021653Y031498D01*
X021724Y031481D01*
X021794Y031459D01*
X021863Y031434D01*
X021930Y031405D01*
X021995Y031373D01*
X022059Y031337D01*
X022121Y031297D01*
X022180Y031255D01*
X022237Y031209D01*
X022291Y031160D01*
X022343Y031108D01*
X022392Y031054D01*
X022438Y030997D01*
X022480Y030938D01*
X022520Y030876D01*
X022556Y030812D01*
X022588Y030747D01*
X022617Y030680D01*
X022642Y030611D01*
X022664Y030541D01*
X022681Y030470D01*
X022695Y030398D01*
X022705Y030326D01*
X022711Y030253D01*
X022713Y030180D01*
X022711Y030107D01*
X022705Y030034D01*
X022695Y029962D01*
X022681Y029890D01*
X022664Y029819D01*
X022642Y029749D01*
X022617Y029680D01*
X022588Y029613D01*
X022556Y029548D01*
X022520Y029484D01*
X022480Y029422D01*
X022438Y029363D01*
X022392Y029306D01*
X022343Y029252D01*
X022291Y029200D01*
X022237Y029151D01*
X022180Y029105D01*
X022121Y029063D01*
X022059Y029023D01*
X021995Y028987D01*
X021930Y028955D01*
X021863Y028926D01*
X021794Y028901D01*
X021724Y028879D01*
X021653Y028862D01*
X021581Y028848D01*
X021509Y028838D01*
X021436Y028832D01*
X021363Y028830D01*
X021290Y028832D01*
X021217Y028838D01*
X021145Y028848D01*
X021073Y028862D01*
X021002Y028879D01*
X020932Y028901D01*
X020863Y028926D01*
X020796Y028955D01*
X020731Y028987D01*
X020667Y029023D01*
X020605Y029063D01*
X020546Y029105D01*
X020489Y029151D01*
X020435Y029200D01*
X020383Y029252D01*
X020334Y029306D01*
X020288Y029363D01*
X020246Y029422D01*
X020206Y029484D01*
X020170Y029548D01*
X020138Y029613D01*
X020109Y029680D01*
X020084Y029749D01*
X020062Y029819D01*
X020045Y029890D01*
X020031Y029962D01*
X020021Y030034D01*
X020015Y030107D01*
X020013Y030180D01*
X021263Y032180D02*
X020963Y032480D01*
X020863Y032480D01*
X020863Y032880D01*
X020963Y032880D01*
X021263Y033180D01*
X021763Y033180D01*
X021863Y033080D01*
X022863Y033080D01*
X022963Y033180D01*
X023463Y033180D01*
X023763Y032880D01*
X023863Y032880D01*
X023863Y032480D01*
X023763Y032480D01*
X023463Y032180D01*
X022963Y032180D01*
X022863Y032280D01*
X021863Y032280D01*
X021763Y032180D01*
X021263Y032180D01*
X021363Y032480D02*
X021463Y032480D01*
X021763Y032180D01*
X022263Y032180D01*
X022363Y032280D01*
X022463Y032180D01*
X022963Y032180D01*
X023263Y032480D01*
X023363Y032480D01*
X023363Y032880D01*
X023263Y032880D01*
X022963Y033180D01*
X022463Y033180D01*
X022363Y033080D01*
X022263Y033180D01*
X021763Y033180D01*
X021463Y032880D01*
X021363Y032880D01*
X021363Y032480D01*
X024163Y030680D02*
X024463Y030680D01*
X024313Y030530D02*
X024313Y030830D01*
X024013Y030680D02*
X024015Y030753D01*
X024021Y030826D01*
X024031Y030898D01*
X024045Y030970D01*
X024062Y031041D01*
X024084Y031111D01*
X024109Y031180D01*
X024138Y031247D01*
X024170Y031312D01*
X024206Y031376D01*
X024246Y031438D01*
X024288Y031497D01*
X024334Y031554D01*
X024383Y031608D01*
X024435Y031660D01*
X024489Y031709D01*
X024546Y031755D01*
X024605Y031797D01*
X024667Y031837D01*
X024731Y031873D01*
X024796Y031905D01*
X024863Y031934D01*
X024932Y031959D01*
X025002Y031981D01*
X025073Y031998D01*
X025145Y032012D01*
X025217Y032022D01*
X025290Y032028D01*
X025363Y032030D01*
X025436Y032028D01*
X025509Y032022D01*
X025581Y032012D01*
X025653Y031998D01*
X025724Y031981D01*
X025794Y031959D01*
X025863Y031934D01*
X025930Y031905D01*
X025995Y031873D01*
X026059Y031837D01*
X026121Y031797D01*
X026180Y031755D01*
X026237Y031709D01*
X026291Y031660D01*
X026343Y031608D01*
X026392Y031554D01*
X026438Y031497D01*
X026480Y031438D01*
X026520Y031376D01*
X026556Y031312D01*
X026588Y031247D01*
X026617Y031180D01*
X026642Y031111D01*
X026664Y031041D01*
X026681Y030970D01*
X026695Y030898D01*
X026705Y030826D01*
X026711Y030753D01*
X026713Y030680D01*
X026711Y030607D01*
X026705Y030534D01*
X026695Y030462D01*
X026681Y030390D01*
X026664Y030319D01*
X026642Y030249D01*
X026617Y030180D01*
X026588Y030113D01*
X026556Y030048D01*
X026520Y029984D01*
X026480Y029922D01*
X026438Y029863D01*
X026392Y029806D01*
X026343Y029752D01*
X026291Y029700D01*
X026237Y029651D01*
X026180Y029605D01*
X026121Y029563D01*
X026059Y029523D01*
X025995Y029487D01*
X025930Y029455D01*
X025863Y029426D01*
X025794Y029401D01*
X025724Y029379D01*
X025653Y029362D01*
X025581Y029348D01*
X025509Y029338D01*
X025436Y029332D01*
X025363Y029330D01*
X025290Y029332D01*
X025217Y029338D01*
X025145Y029348D01*
X025073Y029362D01*
X025002Y029379D01*
X024932Y029401D01*
X024863Y029426D01*
X024796Y029455D01*
X024731Y029487D01*
X024667Y029523D01*
X024605Y029563D01*
X024546Y029605D01*
X024489Y029651D01*
X024435Y029700D01*
X024383Y029752D01*
X024334Y029806D01*
X024288Y029863D01*
X024246Y029922D01*
X024206Y029984D01*
X024170Y030048D01*
X024138Y030113D01*
X024109Y030180D01*
X024084Y030249D01*
X024062Y030319D01*
X024045Y030390D01*
X024031Y030462D01*
X024021Y030534D01*
X024015Y030607D01*
X024013Y030680D01*
X025363Y028880D02*
X022363Y028880D01*
X022363Y027480D01*
X025363Y027480D01*
X025363Y028880D01*
X025363Y026880D02*
X025363Y025480D01*
X022363Y025480D01*
X022363Y026880D01*
X025363Y026880D01*
X026013Y024680D02*
X023713Y024680D01*
X023711Y024641D01*
X023705Y024602D01*
X023696Y024564D01*
X023683Y024527D01*
X023666Y024491D01*
X023646Y024458D01*
X023622Y024426D01*
X023596Y024397D01*
X023567Y024371D01*
X023535Y024347D01*
X023502Y024327D01*
X023466Y024310D01*
X023429Y024297D01*
X023391Y024288D01*
X023352Y024282D01*
X023313Y024280D01*
X023274Y024282D01*
X023235Y024288D01*
X023197Y024297D01*
X023160Y024310D01*
X023124Y024327D01*
X023091Y024347D01*
X023059Y024371D01*
X023030Y024397D01*
X023004Y024426D01*
X022980Y024458D01*
X022960Y024491D01*
X022943Y024527D01*
X022930Y024564D01*
X022921Y024602D01*
X022915Y024641D01*
X022913Y024680D01*
X020713Y024680D01*
X020713Y004680D01*
X026013Y004680D01*
X026013Y024680D01*
X027363Y024030D02*
X027363Y022330D01*
X027365Y022313D01*
X027369Y022296D01*
X027376Y022280D01*
X027386Y022266D01*
X027399Y022253D01*
X027413Y022243D01*
X027429Y022236D01*
X027446Y022232D01*
X027463Y022230D01*
X028263Y022230D01*
X028280Y022232D01*
X028297Y022236D01*
X028313Y022243D01*
X028327Y022253D01*
X028340Y022266D01*
X028350Y022280D01*
X028357Y022296D01*
X028361Y022313D01*
X028363Y022330D01*
X028363Y024030D01*
X028361Y024047D01*
X028357Y024064D01*
X028350Y024080D01*
X028340Y024094D01*
X028327Y024107D01*
X028313Y024117D01*
X028297Y024124D01*
X028280Y024128D01*
X028263Y024130D01*
X027463Y024130D01*
X027446Y024128D01*
X027429Y024124D01*
X027413Y024117D01*
X027399Y024107D01*
X027386Y024094D01*
X027376Y024080D01*
X027369Y024064D01*
X027365Y024047D01*
X027363Y024030D01*
X027863Y023330D02*
X027863Y023280D01*
X027863Y023080D02*
X027863Y023030D01*
X028793Y021501D02*
X028793Y020967D01*
X028900Y020860D01*
X029114Y020860D01*
X029220Y020967D01*
X029220Y021501D01*
X029438Y021394D02*
X029438Y021287D01*
X029545Y021180D01*
X029758Y021180D01*
X029865Y021074D01*
X029865Y020967D01*
X029758Y020860D01*
X029545Y020860D01*
X029438Y020967D01*
X029651Y020753D02*
X029651Y021607D01*
X029545Y021501D02*
X029758Y021501D01*
X029865Y021394D01*
X030082Y021394D02*
X030189Y021501D01*
X030403Y021501D01*
X030509Y021394D01*
X030509Y021287D01*
X030082Y020860D01*
X030509Y020860D01*
X030963Y020680D02*
X028713Y020680D01*
X028713Y004680D01*
X034013Y004680D01*
X034013Y020680D01*
X031763Y020680D01*
X031761Y020641D01*
X031755Y020602D01*
X031746Y020564D01*
X031733Y020527D01*
X031716Y020491D01*
X031696Y020458D01*
X031672Y020426D01*
X031646Y020397D01*
X031617Y020371D01*
X031585Y020347D01*
X031552Y020327D01*
X031516Y020310D01*
X031479Y020297D01*
X031441Y020288D01*
X031402Y020282D01*
X031363Y020280D01*
X031324Y020282D01*
X031285Y020288D01*
X031247Y020297D01*
X031210Y020310D01*
X031174Y020327D01*
X031141Y020347D01*
X031109Y020371D01*
X031080Y020397D01*
X031054Y020426D01*
X031030Y020458D01*
X031010Y020491D01*
X030993Y020527D01*
X030980Y020564D01*
X030971Y020602D01*
X030965Y020641D01*
X030963Y020680D01*
X029545Y021501D02*
X029438Y021394D01*
X030113Y022680D02*
X030613Y022680D01*
X030863Y022930D01*
X030863Y023430D01*
X030613Y023680D01*
X030863Y023930D01*
X030863Y024430D01*
X030613Y024680D01*
X030863Y024930D01*
X030863Y025430D01*
X030613Y025680D01*
X030863Y025930D01*
X030863Y026430D01*
X030613Y026680D01*
X030863Y026930D01*
X030863Y027430D01*
X030613Y027680D01*
X030863Y027930D01*
X030863Y028430D01*
X030613Y028680D01*
X030863Y028930D01*
X030863Y029430D01*
X030613Y029680D01*
X030863Y029930D01*
X030863Y030430D01*
X030613Y030680D01*
X030863Y030930D01*
X030863Y031430D01*
X030613Y031680D01*
X030863Y031930D01*
X030863Y032430D01*
X030613Y032680D01*
X030113Y032680D01*
X029863Y032430D01*
X029863Y031930D01*
X030113Y031680D01*
X029863Y031430D01*
X029863Y030930D01*
X030113Y030680D01*
X029863Y030430D01*
X029863Y029930D01*
X030113Y029680D01*
X029863Y029430D01*
X029863Y028930D01*
X030113Y028680D01*
X029863Y028430D01*
X029863Y027930D01*
X030113Y027680D01*
X029863Y027430D01*
X029863Y026930D01*
X030113Y026680D01*
X029863Y026430D01*
X029863Y025930D01*
X030113Y025680D01*
X029863Y025430D01*
X029863Y024930D01*
X030113Y024680D01*
X029863Y024430D01*
X029863Y023930D01*
X030113Y023680D01*
X029863Y023430D01*
X029863Y022930D01*
X030113Y022680D01*
X032913Y021580D02*
X032913Y020780D01*
X032915Y020763D01*
X032919Y020746D01*
X032926Y020730D01*
X032936Y020716D01*
X032949Y020703D01*
X032963Y020693D01*
X032979Y020686D01*
X032996Y020682D01*
X033013Y020680D01*
X034713Y020680D01*
X034730Y020682D01*
X034747Y020686D01*
X034763Y020693D01*
X034777Y020703D01*
X034790Y020716D01*
X034800Y020730D01*
X034807Y020746D01*
X034811Y020763D01*
X034813Y020780D01*
X034813Y021580D01*
X034811Y021597D01*
X034807Y021614D01*
X034800Y021630D01*
X034790Y021644D01*
X034777Y021657D01*
X034763Y021667D01*
X034747Y021674D01*
X034730Y021678D01*
X034713Y021680D01*
X033013Y021680D01*
X032996Y021678D01*
X032979Y021674D01*
X032963Y021667D01*
X032949Y021657D01*
X032936Y021644D01*
X032926Y021630D01*
X032919Y021614D01*
X032915Y021597D01*
X032913Y021580D01*
X033713Y021180D02*
X033763Y021180D01*
X033963Y021180D02*
X034013Y021180D01*
X036713Y021680D02*
X037463Y021680D01*
X037465Y021641D01*
X037471Y021602D01*
X037480Y021564D01*
X037493Y021527D01*
X037510Y021491D01*
X037530Y021458D01*
X037554Y021426D01*
X037580Y021397D01*
X037609Y021371D01*
X037641Y021347D01*
X037674Y021327D01*
X037710Y021310D01*
X037747Y021297D01*
X037785Y021288D01*
X037824Y021282D01*
X037863Y021280D01*
X037902Y021282D01*
X037941Y021288D01*
X037979Y021297D01*
X038016Y021310D01*
X038052Y021327D01*
X038085Y021347D01*
X038117Y021371D01*
X038146Y021397D01*
X038172Y021426D01*
X038196Y021458D01*
X038216Y021491D01*
X038233Y021527D01*
X038246Y021564D01*
X038255Y021602D01*
X038261Y021641D01*
X038263Y021680D01*
X039013Y021680D01*
X039013Y017680D01*
X036713Y017680D01*
X036713Y021680D01*
X039036Y022961D02*
X039143Y022961D01*
X039356Y022961D02*
X039783Y022961D01*
X039783Y022855D02*
X039783Y023068D01*
X039676Y023284D02*
X039783Y023391D01*
X039783Y023711D01*
X039890Y023711D02*
X039356Y023711D01*
X039356Y023391D01*
X039463Y023284D01*
X039676Y023284D01*
X039997Y023498D02*
X039997Y023605D01*
X039890Y023711D01*
X039783Y023929D02*
X039783Y024142D01*
X039783Y024036D02*
X039356Y024036D01*
X039356Y023929D01*
X039143Y024036D02*
X039036Y024036D01*
X039356Y024358D02*
X039356Y024572D01*
X039249Y024465D02*
X039676Y024465D01*
X039783Y024572D01*
X039676Y024788D02*
X039570Y024895D01*
X039570Y025215D01*
X039463Y025215D02*
X039783Y025215D01*
X039783Y024895D01*
X039676Y024788D01*
X039356Y024895D02*
X039356Y025108D01*
X039463Y025215D01*
X039783Y025433D02*
X039783Y025646D01*
X039783Y025540D02*
X039143Y025540D01*
X039143Y025433D01*
X039143Y025862D02*
X039783Y025862D01*
X039570Y025862D02*
X039356Y026183D01*
X039463Y026400D02*
X039356Y026506D01*
X039356Y026720D01*
X039463Y026827D01*
X039570Y026827D01*
X039570Y026400D01*
X039676Y026400D02*
X039463Y026400D01*
X039676Y026400D02*
X039783Y026506D01*
X039783Y026720D01*
X039783Y027044D02*
X039356Y027044D01*
X039356Y027258D02*
X039356Y027364D01*
X039356Y027258D02*
X039570Y027044D01*
X040193Y027044D02*
X040833Y027044D01*
X040620Y027044D02*
X040406Y027364D01*
X040513Y027581D02*
X040406Y027688D01*
X040406Y027902D01*
X040513Y028008D01*
X040620Y028008D01*
X040620Y027581D01*
X040726Y027581D02*
X040513Y027581D01*
X040726Y027581D02*
X040833Y027688D01*
X040833Y027902D01*
X040833Y028226D02*
X040406Y028226D01*
X040406Y028439D02*
X040406Y028546D01*
X040406Y028439D02*
X040620Y028226D01*
X040726Y028763D02*
X040726Y028870D01*
X040833Y028870D01*
X040833Y028763D01*
X040726Y028763D01*
X040726Y029085D02*
X040833Y029192D01*
X040833Y029512D01*
X040726Y029730D02*
X040833Y029837D01*
X040833Y030050D01*
X040726Y030157D01*
X040513Y030157D01*
X040406Y030050D01*
X040406Y029837D01*
X040513Y029730D01*
X040726Y029730D01*
X040406Y029512D02*
X040406Y029192D01*
X040513Y029085D01*
X040726Y029085D01*
X039783Y029622D02*
X039676Y029515D01*
X039249Y029942D01*
X039676Y029942D01*
X039783Y029835D01*
X039783Y029622D01*
X039676Y029515D02*
X039249Y029515D01*
X039143Y029622D01*
X039143Y029835D01*
X039249Y029942D01*
X039676Y030159D02*
X039676Y030266D01*
X039783Y030266D01*
X039783Y030159D01*
X039676Y030159D01*
X039783Y030482D02*
X039783Y030909D01*
X039783Y030695D02*
X039143Y030695D01*
X039356Y030482D01*
X039249Y031126D02*
X039143Y031233D01*
X039143Y031447D01*
X039249Y031553D01*
X039676Y031126D01*
X039783Y031233D01*
X039783Y031447D01*
X039676Y031553D01*
X039249Y031553D01*
X039249Y031126D02*
X039676Y031126D01*
X040406Y030695D02*
X040513Y030801D01*
X040833Y030801D01*
X040833Y030588D02*
X040513Y030588D01*
X040406Y030695D01*
X040513Y030588D02*
X040406Y030481D01*
X040406Y030374D01*
X040833Y030374D01*
X039783Y028439D02*
X039356Y028653D01*
X039356Y028226D02*
X039783Y028439D01*
X040833Y027364D02*
X040620Y027044D01*
X040620Y026827D02*
X040620Y026506D01*
X040726Y026400D01*
X040833Y026506D01*
X040833Y026827D01*
X040513Y026827D01*
X040406Y026720D01*
X040406Y026506D01*
X040513Y026182D02*
X040406Y026075D01*
X040406Y025755D01*
X040193Y025755D02*
X040833Y025755D01*
X040833Y026075D01*
X040726Y026182D01*
X040513Y026182D01*
X040513Y025538D02*
X040833Y025538D01*
X040833Y025324D02*
X040513Y025324D01*
X040406Y025431D01*
X040513Y025538D01*
X040513Y025324D02*
X040406Y025217D01*
X040406Y025110D01*
X040833Y025110D01*
X040726Y024893D02*
X040620Y024786D01*
X040620Y024573D01*
X040513Y024466D01*
X040406Y024573D01*
X040406Y024893D01*
X040726Y024893D02*
X040833Y024786D01*
X040833Y024466D01*
X040833Y024250D02*
X040726Y024250D01*
X040726Y024144D01*
X040833Y024144D01*
X040833Y024250D01*
X040726Y023926D02*
X040406Y023926D01*
X040726Y023926D02*
X040833Y023819D01*
X040726Y023713D01*
X040833Y023606D01*
X040726Y023499D01*
X040406Y023499D01*
X040406Y023282D02*
X040726Y023282D01*
X040833Y023175D01*
X040726Y023068D01*
X040833Y022961D01*
X040726Y022855D01*
X040406Y022855D01*
X040406Y022637D02*
X040726Y022637D01*
X040833Y022530D01*
X040726Y022424D01*
X040833Y022317D01*
X040726Y022210D01*
X040406Y022210D01*
X039783Y022317D02*
X039676Y022210D01*
X039463Y022210D01*
X039356Y022317D01*
X039356Y022637D01*
X039143Y022637D02*
X039783Y022637D01*
X039783Y022317D01*
X039356Y022855D02*
X039356Y022961D01*
X038263Y024680D02*
X037463Y024680D01*
X037363Y024780D01*
X037363Y025580D01*
X037463Y025680D01*
X037363Y025780D01*
X037363Y026580D01*
X037463Y026680D01*
X038263Y026680D01*
X038363Y026580D01*
X038363Y025780D01*
X038263Y025680D01*
X038363Y025580D01*
X038363Y024780D01*
X038263Y024680D01*
X039570Y025862D02*
X039783Y026183D01*
X038363Y027330D02*
X038363Y029030D01*
X038361Y029047D01*
X038357Y029064D01*
X038350Y029080D01*
X038340Y029094D01*
X038327Y029107D01*
X038313Y029117D01*
X038297Y029124D01*
X038280Y029128D01*
X038263Y029130D01*
X037463Y029130D01*
X037446Y029128D01*
X037429Y029124D01*
X037413Y029117D01*
X037399Y029107D01*
X037386Y029094D01*
X037376Y029080D01*
X037369Y029064D01*
X037365Y029047D01*
X037363Y029030D01*
X037363Y027330D01*
X037365Y027313D01*
X037369Y027296D01*
X037376Y027280D01*
X037386Y027266D01*
X037399Y027253D01*
X037413Y027243D01*
X037429Y027236D01*
X037446Y027232D01*
X037463Y027230D01*
X038263Y027230D01*
X038280Y027232D01*
X038297Y027236D01*
X038313Y027243D01*
X038327Y027253D01*
X038340Y027266D01*
X038350Y027280D01*
X038357Y027296D01*
X038361Y027313D01*
X038363Y027330D01*
X037863Y028030D02*
X037863Y028080D01*
X037863Y028280D02*
X037863Y028330D01*
X036313Y027680D02*
X034013Y027680D01*
X034013Y031680D01*
X034763Y031680D01*
X034765Y031641D01*
X034771Y031602D01*
X034780Y031564D01*
X034793Y031527D01*
X034810Y031491D01*
X034830Y031458D01*
X034854Y031426D01*
X034880Y031397D01*
X034909Y031371D01*
X034941Y031347D01*
X034974Y031327D01*
X035010Y031310D01*
X035047Y031297D01*
X035085Y031288D01*
X035124Y031282D01*
X035163Y031280D01*
X035202Y031282D01*
X035241Y031288D01*
X035279Y031297D01*
X035316Y031310D01*
X035352Y031327D01*
X035385Y031347D01*
X035417Y031371D01*
X035446Y031397D01*
X035472Y031426D01*
X035496Y031458D01*
X035516Y031491D01*
X035533Y031527D01*
X035546Y031564D01*
X035555Y031602D01*
X035561Y031641D01*
X035563Y031680D01*
X036313Y031680D01*
X036313Y027680D01*
X035763Y026580D02*
X035613Y026580D01*
X035563Y026530D01*
X034163Y026530D01*
X034113Y026580D01*
X033963Y026580D01*
X033946Y026578D01*
X033929Y026574D01*
X033913Y026567D01*
X033899Y026557D01*
X033886Y026544D01*
X033876Y026530D01*
X033869Y026514D01*
X033865Y026497D01*
X033863Y026480D01*
X033863Y025880D01*
X033865Y025863D01*
X033869Y025846D01*
X033876Y025830D01*
X033886Y025816D01*
X033899Y025803D01*
X033913Y025793D01*
X033929Y025786D01*
X033946Y025782D01*
X033963Y025780D01*
X034113Y025780D01*
X034163Y025830D01*
X035563Y025830D01*
X035613Y025780D01*
X035763Y025780D01*
X035780Y025782D01*
X035797Y025786D01*
X035813Y025793D01*
X035827Y025803D01*
X035840Y025816D01*
X035850Y025830D01*
X035857Y025846D01*
X035861Y025863D01*
X035863Y025880D01*
X035863Y026480D01*
X035861Y026497D01*
X035857Y026514D01*
X035850Y026530D01*
X035840Y026544D01*
X035827Y026557D01*
X035813Y026567D01*
X035797Y026574D01*
X035780Y026578D01*
X035763Y026580D01*
X033363Y026830D02*
X033363Y028530D01*
X033361Y028547D01*
X033357Y028564D01*
X033350Y028580D01*
X033340Y028594D01*
X033327Y028607D01*
X033313Y028617D01*
X033297Y028624D01*
X033280Y028628D01*
X033263Y028630D01*
X032463Y028630D01*
X032446Y028628D01*
X032429Y028624D01*
X032413Y028617D01*
X032399Y028607D01*
X032386Y028594D01*
X032376Y028580D01*
X032369Y028564D01*
X032365Y028547D01*
X032363Y028530D01*
X032363Y026830D01*
X032365Y026813D01*
X032369Y026796D01*
X032376Y026780D01*
X032386Y026766D01*
X032399Y026753D01*
X032413Y026743D01*
X032429Y026736D01*
X032446Y026732D01*
X032463Y026730D01*
X033263Y026730D01*
X033280Y026732D01*
X033297Y026736D01*
X033313Y026743D01*
X033327Y026753D01*
X033340Y026766D01*
X033350Y026780D01*
X033357Y026796D01*
X033361Y026813D01*
X033363Y026830D01*
X032863Y027530D02*
X032863Y027580D01*
X032863Y027780D02*
X032863Y027830D01*
X033263Y028730D02*
X032463Y028730D01*
X032446Y028732D01*
X032429Y028736D01*
X032413Y028743D01*
X032399Y028753D01*
X032386Y028766D01*
X032376Y028780D01*
X032369Y028796D01*
X032365Y028813D01*
X032363Y028830D01*
X032363Y030530D01*
X032365Y030547D01*
X032369Y030564D01*
X032376Y030580D01*
X032386Y030594D01*
X032399Y030607D01*
X032413Y030617D01*
X032429Y030624D01*
X032446Y030628D01*
X032463Y030630D01*
X033263Y030630D01*
X033280Y030628D01*
X033297Y030624D01*
X033313Y030617D01*
X033327Y030607D01*
X033340Y030594D01*
X033350Y030580D01*
X033357Y030564D01*
X033361Y030547D01*
X033363Y030530D01*
X033363Y028830D01*
X033361Y028813D01*
X033357Y028796D01*
X033350Y028780D01*
X033340Y028766D01*
X033327Y028753D01*
X033313Y028743D01*
X033297Y028736D01*
X033280Y028732D01*
X033263Y028730D01*
X032863Y029530D02*
X032863Y029580D01*
X032863Y029780D02*
X032863Y029830D01*
X028763Y030830D02*
X028763Y032530D01*
X028761Y032547D01*
X028757Y032564D01*
X028750Y032580D01*
X028740Y032594D01*
X028727Y032607D01*
X028713Y032617D01*
X028697Y032624D01*
X028680Y032628D01*
X028663Y032630D01*
X028063Y032630D01*
X028046Y032628D01*
X028029Y032624D01*
X028013Y032617D01*
X027999Y032607D01*
X027986Y032594D01*
X027976Y032580D01*
X027969Y032564D01*
X027965Y032547D01*
X027963Y032530D01*
X027963Y030830D01*
X027965Y030813D01*
X027969Y030796D01*
X027976Y030780D01*
X027986Y030766D01*
X027999Y030753D01*
X028013Y030743D01*
X028029Y030736D01*
X028046Y030732D01*
X028063Y030730D01*
X028663Y030730D01*
X028680Y030732D01*
X028697Y030736D01*
X028713Y030743D01*
X028727Y030753D01*
X028740Y030766D01*
X028750Y030780D01*
X028757Y030796D01*
X028761Y030813D01*
X028763Y030830D01*
X022296Y025551D02*
X022296Y024910D01*
X022509Y024910D02*
X022082Y024910D01*
X021865Y025017D02*
X021865Y025124D01*
X021758Y025230D01*
X021545Y025230D01*
X021438Y025337D01*
X021438Y025444D01*
X021545Y025551D01*
X021758Y025551D01*
X021865Y025444D01*
X022082Y025337D02*
X022296Y025551D01*
X021651Y025657D02*
X021651Y024803D01*
X021545Y024910D02*
X021758Y024910D01*
X021865Y025017D01*
X021545Y024910D02*
X021438Y025017D01*
X021220Y025017D02*
X021220Y025551D01*
X020793Y025551D02*
X020793Y025017D01*
X020900Y024910D01*
X021114Y024910D01*
X021220Y025017D01*
X015363Y018830D02*
X015363Y018780D01*
X015363Y018580D02*
X015363Y018530D01*
X016463Y017080D02*
X016613Y017080D01*
X016663Y017030D01*
X018063Y017030D01*
X018113Y017080D01*
X018263Y017080D01*
X018280Y017078D01*
X018297Y017074D01*
X018313Y017067D01*
X018327Y017057D01*
X018340Y017044D01*
X018350Y017030D01*
X018357Y017014D01*
X018361Y016997D01*
X018363Y016980D01*
X018363Y016380D01*
X018361Y016363D01*
X018357Y016346D01*
X018350Y016330D01*
X018340Y016316D01*
X018327Y016303D01*
X018313Y016293D01*
X018297Y016286D01*
X018280Y016282D01*
X018263Y016280D01*
X018113Y016280D01*
X018063Y016330D01*
X016663Y016330D01*
X016613Y016280D01*
X016463Y016280D01*
X016446Y016282D01*
X016429Y016286D01*
X016413Y016293D01*
X016399Y016303D01*
X016386Y016316D01*
X016376Y016330D01*
X016369Y016346D01*
X016365Y016363D01*
X016363Y016380D01*
X016363Y016980D01*
X016365Y016997D01*
X016369Y017014D01*
X016376Y017030D01*
X016386Y017044D01*
X016399Y017057D01*
X016413Y017067D01*
X016429Y017074D01*
X016446Y017078D01*
X016463Y017080D01*
X017213Y013280D02*
X015513Y013280D01*
X015496Y013278D01*
X015479Y013274D01*
X015463Y013267D01*
X015449Y013257D01*
X015436Y013244D01*
X015426Y013230D01*
X015419Y013214D01*
X015415Y013197D01*
X015413Y013180D01*
X015413Y012180D01*
X015415Y012163D01*
X015419Y012146D01*
X015426Y012130D01*
X015436Y012116D01*
X015449Y012103D01*
X015463Y012093D01*
X015479Y012086D01*
X015496Y012082D01*
X015513Y012080D01*
X017213Y012080D01*
X017230Y012082D01*
X017247Y012086D01*
X017263Y012093D01*
X017277Y012103D01*
X017290Y012116D01*
X017300Y012130D01*
X017307Y012146D01*
X017311Y012163D01*
X017313Y012180D01*
X017313Y013180D01*
X017311Y013197D01*
X017307Y013214D01*
X017300Y013230D01*
X017290Y013244D01*
X017277Y013257D01*
X017263Y013267D01*
X017247Y013274D01*
X017230Y013278D01*
X017213Y013280D01*
X016513Y012680D02*
X016463Y012680D01*
X016263Y012680D02*
X016213Y012680D01*
X016513Y011680D02*
X015763Y011680D01*
X015761Y011641D01*
X015755Y011602D01*
X015746Y011564D01*
X015733Y011527D01*
X015716Y011491D01*
X015696Y011458D01*
X015672Y011426D01*
X015646Y011397D01*
X015617Y011371D01*
X015585Y011347D01*
X015552Y011327D01*
X015516Y011310D01*
X015479Y011297D01*
X015441Y011288D01*
X015402Y011282D01*
X015363Y011280D01*
X015324Y011282D01*
X015285Y011288D01*
X015247Y011297D01*
X015210Y011310D01*
X015174Y011327D01*
X015141Y011347D01*
X015109Y011371D01*
X015080Y011397D01*
X015054Y011426D01*
X015030Y011458D01*
X015010Y011491D01*
X014993Y011527D01*
X014980Y011564D01*
X014971Y011602D01*
X014965Y011641D01*
X014963Y011680D01*
X014213Y011680D01*
X014213Y003680D01*
X016513Y003680D01*
X016513Y011680D01*
X017263Y011530D02*
X017263Y009830D01*
X017265Y009813D01*
X017269Y009796D01*
X017276Y009780D01*
X017286Y009766D01*
X017299Y009753D01*
X017313Y009743D01*
X017329Y009736D01*
X017346Y009732D01*
X017363Y009730D01*
X018363Y009730D01*
X018380Y009732D01*
X018397Y009736D01*
X018413Y009743D01*
X018427Y009753D01*
X018440Y009766D01*
X018450Y009780D01*
X018457Y009796D01*
X018461Y009813D01*
X018463Y009830D01*
X018463Y011530D01*
X018461Y011547D01*
X018457Y011564D01*
X018450Y011580D01*
X018440Y011594D01*
X018427Y011607D01*
X018413Y011617D01*
X018397Y011624D01*
X018380Y011628D01*
X018363Y011630D01*
X017363Y011630D01*
X017346Y011628D01*
X017329Y011624D01*
X017313Y011617D01*
X017299Y011607D01*
X017286Y011594D01*
X017276Y011580D01*
X017269Y011564D01*
X017265Y011547D01*
X017263Y011530D01*
X017863Y010830D02*
X017863Y010780D01*
X017863Y010580D02*
X017863Y010530D01*
X017963Y007680D02*
X018763Y007680D01*
X018863Y007580D01*
X018863Y006780D01*
X018763Y006680D01*
X018863Y006580D01*
X018863Y005780D01*
X018763Y005680D01*
X018863Y005580D01*
X018863Y004780D01*
X018763Y004680D01*
X017963Y004680D01*
X017863Y004780D01*
X017863Y005580D01*
X017963Y005680D01*
X017863Y005780D01*
X017863Y006580D01*
X017963Y006680D01*
X017863Y006780D01*
X017863Y007580D01*
X017963Y007680D01*
X013463Y008530D02*
X013463Y006830D01*
X013461Y006813D01*
X013457Y006796D01*
X013450Y006780D01*
X013440Y006766D01*
X013427Y006753D01*
X013413Y006743D01*
X013397Y006736D01*
X013380Y006732D01*
X013363Y006730D01*
X012363Y006730D01*
X012346Y006732D01*
X012329Y006736D01*
X012313Y006743D01*
X012299Y006753D01*
X012286Y006766D01*
X012276Y006780D01*
X012269Y006796D01*
X012265Y006813D01*
X012263Y006830D01*
X012263Y008530D01*
X012265Y008547D01*
X012269Y008564D01*
X012276Y008580D01*
X012286Y008594D01*
X012299Y008607D01*
X012313Y008617D01*
X012329Y008624D01*
X012346Y008628D01*
X012363Y008630D01*
X013363Y008630D01*
X013380Y008628D01*
X013397Y008624D01*
X013413Y008617D01*
X013427Y008607D01*
X013440Y008594D01*
X013450Y008580D01*
X013457Y008564D01*
X013461Y008547D01*
X013463Y008530D01*
X013363Y009230D02*
X012363Y009230D01*
X012346Y009232D01*
X012329Y009236D01*
X012313Y009243D01*
X012299Y009253D01*
X012286Y009266D01*
X012276Y009280D01*
X012269Y009296D01*
X012265Y009313D01*
X012263Y009330D01*
X012263Y011030D01*
X012265Y011047D01*
X012269Y011064D01*
X012276Y011080D01*
X012286Y011094D01*
X012299Y011107D01*
X012313Y011117D01*
X012329Y011124D01*
X012346Y011128D01*
X012363Y011130D01*
X013363Y011130D01*
X013380Y011128D01*
X013397Y011124D01*
X013413Y011117D01*
X013427Y011107D01*
X013440Y011094D01*
X013450Y011080D01*
X013457Y011064D01*
X013461Y011047D01*
X013463Y011030D01*
X013463Y009330D01*
X013461Y009313D01*
X013457Y009296D01*
X013450Y009280D01*
X013440Y009266D01*
X013427Y009253D01*
X013413Y009243D01*
X013397Y009236D01*
X013380Y009232D01*
X013363Y009230D01*
X012363Y009830D02*
X012213Y009680D01*
X011513Y009680D01*
X011363Y009830D01*
X011213Y009680D01*
X010513Y009680D01*
X010363Y009830D01*
X010363Y011530D01*
X010513Y011680D01*
X011213Y011680D01*
X011363Y011530D01*
X011513Y011680D01*
X012213Y011680D01*
X012363Y011530D01*
X012363Y009830D01*
X012863Y010030D02*
X012863Y010080D01*
X012863Y010280D02*
X012863Y010330D01*
X011663Y008680D02*
X011063Y008680D01*
X011046Y008678D01*
X011029Y008674D01*
X011013Y008667D01*
X010999Y008657D01*
X010986Y008644D01*
X010976Y008630D01*
X010969Y008614D01*
X010965Y008597D01*
X010963Y008580D01*
X010963Y008430D01*
X011013Y008380D01*
X011013Y006980D01*
X010963Y006930D01*
X010963Y006780D01*
X010965Y006763D01*
X010969Y006746D01*
X010976Y006730D01*
X010986Y006716D01*
X010999Y006703D01*
X011013Y006693D01*
X011029Y006686D01*
X011046Y006682D01*
X011063Y006680D01*
X011663Y006680D01*
X011680Y006682D01*
X011697Y006686D01*
X011713Y006693D01*
X011727Y006703D01*
X011740Y006716D01*
X011750Y006730D01*
X011757Y006746D01*
X011761Y006763D01*
X011763Y006780D01*
X011763Y006930D01*
X011713Y006980D01*
X011713Y008380D01*
X011763Y008430D01*
X011763Y008580D01*
X011761Y008597D01*
X011757Y008614D01*
X011750Y008630D01*
X011740Y008644D01*
X011727Y008657D01*
X011713Y008667D01*
X011697Y008674D01*
X011680Y008678D01*
X011663Y008680D01*
X012863Y007830D02*
X012863Y007780D01*
X012863Y007580D02*
X012863Y007530D01*
X012363Y006130D02*
X013363Y006130D01*
X013380Y006128D01*
X013397Y006124D01*
X013413Y006117D01*
X013427Y006107D01*
X013440Y006094D01*
X013450Y006080D01*
X013457Y006064D01*
X013461Y006047D01*
X013463Y006030D01*
X013463Y004330D01*
X013461Y004313D01*
X013457Y004296D01*
X013450Y004280D01*
X013440Y004266D01*
X013427Y004253D01*
X013413Y004243D01*
X013397Y004236D01*
X013380Y004232D01*
X013363Y004230D01*
X012363Y004230D01*
X012346Y004232D01*
X012329Y004236D01*
X012313Y004243D01*
X012299Y004253D01*
X012286Y004266D01*
X012276Y004280D01*
X012269Y004296D01*
X012265Y004313D01*
X012263Y004330D01*
X012263Y006030D01*
X012265Y006047D01*
X012269Y006064D01*
X012276Y006080D01*
X012286Y006094D01*
X012299Y006107D01*
X012313Y006117D01*
X012329Y006124D01*
X012346Y006128D01*
X012363Y006130D01*
X012863Y005330D02*
X012863Y005280D01*
X012863Y005080D02*
X012863Y005030D01*
X012013Y004980D02*
X012013Y004380D01*
X012011Y004363D01*
X012007Y004346D01*
X012000Y004330D01*
X011990Y004316D01*
X011977Y004303D01*
X011963Y004293D01*
X011947Y004286D01*
X011930Y004282D01*
X011913Y004280D01*
X010813Y004280D01*
X010796Y004282D01*
X010779Y004286D01*
X010763Y004293D01*
X010749Y004303D01*
X010736Y004316D01*
X010726Y004330D01*
X010719Y004346D01*
X010715Y004363D01*
X010713Y004380D01*
X010713Y004980D01*
X010715Y004997D01*
X010719Y005014D01*
X010726Y005030D01*
X010736Y005044D01*
X010749Y005057D01*
X010763Y005067D01*
X010779Y005074D01*
X010796Y005078D01*
X010813Y005080D01*
X011913Y005080D01*
X011930Y005078D01*
X011947Y005074D01*
X011963Y005067D01*
X011977Y005057D01*
X011990Y005044D01*
X012000Y005030D01*
X012007Y005014D01*
X012011Y004997D01*
X012013Y004980D01*
X011913Y004080D02*
X010813Y004080D01*
X010796Y004078D01*
X010779Y004074D01*
X010763Y004067D01*
X010749Y004057D01*
X010736Y004044D01*
X010726Y004030D01*
X010719Y004014D01*
X010715Y003997D01*
X010713Y003980D01*
X010713Y003380D01*
X010715Y003363D01*
X010719Y003346D01*
X010726Y003330D01*
X010736Y003316D01*
X010749Y003303D01*
X010763Y003293D01*
X010779Y003286D01*
X010796Y003282D01*
X010813Y003280D01*
X011913Y003280D01*
X011930Y003282D01*
X011947Y003286D01*
X011963Y003293D01*
X011977Y003303D01*
X011990Y003316D01*
X012000Y003330D01*
X012007Y003346D01*
X012011Y003363D01*
X012013Y003380D01*
X012013Y003980D01*
X012011Y003997D01*
X012007Y004014D01*
X012000Y004030D01*
X011990Y004044D01*
X011977Y004057D01*
X011963Y004067D01*
X011947Y004074D01*
X011930Y004078D01*
X011913Y004080D01*
X010113Y004480D02*
X010113Y006380D01*
X009913Y006580D01*
X005863Y006580D01*
X005863Y006680D01*
X005863Y006580D02*
X005863Y006230D01*
X005863Y004230D01*
X005913Y004230D01*
X009863Y004230D01*
X010113Y004480D01*
X008213Y005420D02*
X008215Y005470D01*
X008221Y005520D01*
X008231Y005570D01*
X008244Y005618D01*
X008261Y005666D01*
X008282Y005712D01*
X008306Y005756D01*
X008334Y005798D01*
X008365Y005838D01*
X008399Y005875D01*
X008436Y005910D01*
X008475Y005941D01*
X008516Y005970D01*
X008560Y005995D01*
X008606Y006017D01*
X008653Y006035D01*
X008701Y006049D01*
X008750Y006060D01*
X008800Y006067D01*
X008850Y006070D01*
X008901Y006069D01*
X008951Y006064D01*
X009001Y006055D01*
X009049Y006043D01*
X009097Y006026D01*
X009143Y006006D01*
X009188Y005983D01*
X009231Y005956D01*
X009271Y005926D01*
X009309Y005893D01*
X009344Y005857D01*
X009377Y005818D01*
X009406Y005777D01*
X009432Y005734D01*
X009455Y005689D01*
X009474Y005642D01*
X009489Y005594D01*
X009501Y005545D01*
X009509Y005495D01*
X009513Y005445D01*
X009513Y005395D01*
X009509Y005345D01*
X009501Y005295D01*
X009489Y005246D01*
X009474Y005198D01*
X009455Y005151D01*
X009432Y005106D01*
X009406Y005063D01*
X009377Y005022D01*
X009344Y004983D01*
X009309Y004947D01*
X009271Y004914D01*
X009231Y004884D01*
X009188Y004857D01*
X009143Y004834D01*
X009097Y004814D01*
X009049Y004797D01*
X009001Y004785D01*
X008951Y004776D01*
X008901Y004771D01*
X008850Y004770D01*
X008800Y004773D01*
X008750Y004780D01*
X008701Y004791D01*
X008653Y004805D01*
X008606Y004823D01*
X008560Y004845D01*
X008516Y004870D01*
X008475Y004899D01*
X008436Y004930D01*
X008399Y004965D01*
X008365Y005002D01*
X008334Y005042D01*
X008306Y005084D01*
X008282Y005128D01*
X008261Y005174D01*
X008244Y005222D01*
X008231Y005270D01*
X008221Y005320D01*
X008215Y005370D01*
X008213Y005420D01*
X005863Y004230D02*
X004663Y004230D01*
X004463Y004230D01*
X004463Y006230D02*
X004663Y006230D01*
X004663Y006280D01*
X005613Y006280D01*
X005643Y006282D01*
X005673Y006287D01*
X005702Y006296D01*
X005729Y006309D01*
X005755Y006324D01*
X005779Y006343D01*
X005800Y006364D01*
X005819Y006388D01*
X005834Y006414D01*
X005847Y006441D01*
X005856Y006470D01*
X005861Y006500D01*
X005863Y006530D01*
X004263Y006880D02*
X004261Y006910D01*
X004256Y006940D01*
X004247Y006969D01*
X004234Y006996D01*
X004219Y007022D01*
X004200Y007046D01*
X004179Y007067D01*
X004155Y007086D01*
X004129Y007101D01*
X004102Y007114D01*
X004073Y007123D01*
X004043Y007128D01*
X004013Y007130D01*
X008113Y002180D02*
X007863Y001930D01*
X007863Y001430D01*
X008113Y001180D01*
X008613Y001180D01*
X008863Y001430D01*
X009113Y001180D01*
X009613Y001180D01*
X009863Y001430D01*
X010113Y001180D01*
X010613Y001180D01*
X010863Y001430D01*
X011113Y001180D01*
X011613Y001180D01*
X011863Y001430D01*
X012113Y001180D01*
X012613Y001180D01*
X012863Y001430D01*
X013113Y001180D01*
X013613Y001180D01*
X013863Y001430D01*
X013863Y001930D01*
X013613Y002180D01*
X013113Y002180D01*
X012863Y001930D01*
X012613Y002180D01*
X012113Y002180D01*
X011863Y001930D01*
X011613Y002180D01*
X011113Y002180D01*
X010863Y001930D01*
X010613Y002180D01*
X010113Y002180D01*
X009863Y001930D01*
X009613Y002180D01*
X009113Y002180D01*
X008863Y001930D01*
X008613Y002180D01*
X008113Y002180D01*
X014863Y002080D02*
X014863Y001280D01*
X014963Y001180D01*
X015763Y001180D01*
X015863Y001280D01*
X015963Y001180D01*
X016763Y001180D01*
X016863Y001280D01*
X016863Y002080D01*
X016763Y002180D01*
X015963Y002180D01*
X015863Y002080D01*
X015763Y002180D01*
X014963Y002180D01*
X014863Y002080D01*
X017863Y001430D02*
X018113Y001180D01*
X018613Y001180D01*
X018863Y001430D01*
X019113Y001180D01*
X019613Y001180D01*
X019863Y001430D01*
X020113Y001180D01*
X020613Y001180D01*
X020863Y001430D01*
X020863Y002930D01*
X020613Y003180D01*
X020113Y003180D01*
X019863Y002930D01*
X019613Y003180D01*
X019113Y003180D01*
X018863Y002930D01*
X018613Y003180D01*
X018113Y003180D01*
X017863Y002930D01*
X017863Y001430D01*
X021863Y001430D02*
X022113Y001180D01*
X022613Y001180D01*
X022863Y001430D01*
X023113Y001180D01*
X023613Y001180D01*
X023863Y001430D01*
X024113Y001180D01*
X024613Y001180D01*
X024863Y001430D01*
X025113Y001180D01*
X025613Y001180D01*
X025863Y001430D01*
X026113Y001180D01*
X026613Y001180D01*
X026863Y001430D01*
X026863Y001930D01*
X026613Y002180D01*
X026113Y002180D01*
X025863Y002430D01*
X025613Y002180D01*
X025113Y002180D01*
X024863Y002430D01*
X024613Y002180D01*
X024113Y002180D01*
X023863Y002430D01*
X023613Y002180D01*
X023113Y002180D01*
X022863Y002430D01*
X022613Y002180D01*
X022113Y002180D01*
X021863Y002430D01*
X021863Y002930D01*
X022113Y003180D01*
X022613Y003180D01*
X022863Y002930D01*
X023113Y003180D01*
X023613Y003180D01*
X023863Y002930D01*
X024113Y003180D01*
X024613Y003180D01*
X024863Y002930D01*
X025113Y003180D01*
X025613Y003180D01*
X025863Y002930D01*
X026113Y003180D01*
X026613Y003180D01*
X026863Y002930D01*
X026863Y002430D01*
X026613Y002180D01*
X026113Y002180D01*
X025863Y001930D01*
X025613Y002180D01*
X025113Y002180D01*
X024863Y001930D01*
X024613Y002180D01*
X024113Y002180D01*
X023863Y001930D01*
X023613Y002180D01*
X023113Y002180D01*
X022863Y001930D01*
X022613Y002180D01*
X022113Y002180D01*
X021863Y001930D01*
X021863Y001430D01*
X035463Y007280D02*
X035463Y007430D01*
X035513Y007480D01*
X035513Y008880D01*
X035463Y008930D01*
X035463Y009080D01*
X035465Y009097D01*
X035469Y009114D01*
X035476Y009130D01*
X035486Y009144D01*
X035499Y009157D01*
X035513Y009167D01*
X035529Y009174D01*
X035546Y009178D01*
X035563Y009180D01*
X036163Y009180D01*
X036180Y009178D01*
X036197Y009174D01*
X036213Y009167D01*
X036227Y009157D01*
X036240Y009144D01*
X036250Y009130D01*
X036257Y009114D01*
X036261Y009097D01*
X036263Y009080D01*
X036263Y008930D01*
X036213Y008880D01*
X036213Y007480D01*
X036263Y007430D01*
X036263Y007280D01*
X036261Y007263D01*
X036257Y007246D01*
X036250Y007230D01*
X036240Y007216D01*
X036227Y007203D01*
X036213Y007193D01*
X036197Y007186D01*
X036180Y007182D01*
X036163Y007180D01*
X035563Y007180D01*
X035546Y007182D01*
X035529Y007186D01*
X035513Y007193D01*
X035499Y007203D01*
X035486Y007216D01*
X035476Y007230D01*
X035469Y007246D01*
X035465Y007263D01*
X035463Y007280D01*
X036363Y008030D02*
X036363Y006330D01*
X036365Y006313D01*
X036369Y006296D01*
X036376Y006280D01*
X036386Y006266D01*
X036399Y006253D01*
X036413Y006243D01*
X036429Y006236D01*
X036446Y006232D01*
X036463Y006230D01*
X037263Y006230D01*
X037280Y006232D01*
X037297Y006236D01*
X037313Y006243D01*
X037327Y006253D01*
X037340Y006266D01*
X037350Y006280D01*
X037357Y006296D01*
X037361Y006313D01*
X037363Y006330D01*
X037363Y008030D01*
X037361Y008047D01*
X037357Y008064D01*
X037350Y008080D01*
X037340Y008094D01*
X037327Y008107D01*
X037313Y008117D01*
X037297Y008124D01*
X037280Y008128D01*
X037263Y008130D01*
X036463Y008130D01*
X036446Y008128D01*
X036429Y008124D01*
X036413Y008117D01*
X036399Y008107D01*
X036386Y008094D01*
X036376Y008080D01*
X036369Y008064D01*
X036365Y008047D01*
X036363Y008030D01*
X036863Y007330D02*
X036863Y007280D01*
X036863Y007080D02*
X036863Y007030D01*
X037913Y007080D02*
X037913Y006280D01*
X037915Y006263D01*
X037919Y006246D01*
X037926Y006230D01*
X037936Y006216D01*
X037949Y006203D01*
X037963Y006193D01*
X037979Y006186D01*
X037996Y006182D01*
X038013Y006180D01*
X039713Y006180D01*
X039730Y006182D01*
X039747Y006186D01*
X039763Y006193D01*
X039777Y006203D01*
X039790Y006216D01*
X039800Y006230D01*
X039807Y006246D01*
X039811Y006263D01*
X039813Y006280D01*
X039813Y007080D01*
X039811Y007097D01*
X039807Y007114D01*
X039800Y007130D01*
X039790Y007144D01*
X039777Y007157D01*
X039763Y007167D01*
X039747Y007174D01*
X039730Y007178D01*
X039713Y007180D01*
X038013Y007180D01*
X037996Y007178D01*
X037979Y007174D01*
X037963Y007167D01*
X037949Y007157D01*
X037936Y007144D01*
X037926Y007130D01*
X037919Y007114D01*
X037915Y007097D01*
X037913Y007080D01*
X038063Y007780D02*
X040663Y007780D01*
X040763Y007880D01*
X040763Y010480D01*
X040663Y010580D01*
X038063Y010580D01*
X037963Y010480D01*
X037963Y007880D01*
X038063Y007780D01*
X038563Y008380D02*
X038663Y008480D01*
X038763Y009030D02*
X039063Y009030D01*
X039213Y008880D01*
X039213Y008580D01*
X039513Y008580D01*
X039513Y008880D01*
X039663Y009030D01*
X039763Y009030D01*
X039763Y008930D01*
X040013Y009180D01*
X039763Y009430D01*
X039763Y009330D01*
X039663Y009330D01*
X039513Y009480D01*
X039513Y009780D01*
X039213Y009780D01*
X039213Y009480D01*
X039063Y009330D01*
X038763Y009330D01*
X038763Y009030D01*
X038663Y009880D02*
X038563Y009980D01*
X038613Y011280D02*
X038663Y011330D01*
X040063Y011330D01*
X040113Y011280D01*
X040263Y011280D01*
X040280Y011282D01*
X040297Y011286D01*
X040313Y011293D01*
X040327Y011303D01*
X040340Y011316D01*
X040350Y011330D01*
X040357Y011346D01*
X040361Y011363D01*
X040363Y011380D01*
X040363Y011980D01*
X040361Y011997D01*
X040357Y012014D01*
X040350Y012030D01*
X040340Y012044D01*
X040327Y012057D01*
X040313Y012067D01*
X040297Y012074D01*
X040280Y012078D01*
X040263Y012080D01*
X040113Y012080D01*
X040063Y012030D01*
X038663Y012030D01*
X038613Y012080D01*
X038463Y012080D01*
X038446Y012078D01*
X038429Y012074D01*
X038413Y012067D01*
X038399Y012057D01*
X038386Y012044D01*
X038376Y012030D01*
X038369Y012014D01*
X038365Y011997D01*
X038363Y011980D01*
X038363Y011380D01*
X038365Y011363D01*
X038369Y011346D01*
X038376Y011330D01*
X038386Y011316D01*
X038399Y011303D01*
X038413Y011293D01*
X038429Y011286D01*
X038446Y011282D01*
X038463Y011280D01*
X038613Y011280D01*
X037263Y011080D02*
X037263Y010930D01*
X037213Y010880D01*
X037213Y009480D01*
X037263Y009430D01*
X037263Y009280D01*
X037261Y009263D01*
X037257Y009246D01*
X037250Y009230D01*
X037240Y009216D01*
X037227Y009203D01*
X037213Y009193D01*
X037197Y009186D01*
X037180Y009182D01*
X037163Y009180D01*
X036563Y009180D01*
X036546Y009182D01*
X036529Y009186D01*
X036513Y009193D01*
X036499Y009203D01*
X036486Y009216D01*
X036476Y009230D01*
X036469Y009246D01*
X036465Y009263D01*
X036463Y009280D01*
X036463Y009430D01*
X036513Y009480D01*
X036513Y010880D01*
X036463Y010930D01*
X036463Y011080D01*
X036465Y011097D01*
X036469Y011114D01*
X036476Y011130D01*
X036486Y011144D01*
X036499Y011157D01*
X036513Y011167D01*
X036529Y011174D01*
X036546Y011178D01*
X036563Y011180D01*
X037163Y011180D01*
X037180Y011178D01*
X037197Y011174D01*
X037213Y011167D01*
X037227Y011157D01*
X037240Y011144D01*
X037250Y011130D01*
X037257Y011114D01*
X037261Y011097D01*
X037263Y011080D01*
X035763Y012580D02*
X035563Y012580D01*
X035663Y012480D02*
X035663Y012680D01*
X035363Y012980D02*
X035365Y013043D01*
X035371Y013105D01*
X035381Y013167D01*
X035394Y013229D01*
X035412Y013289D01*
X035433Y013348D01*
X035458Y013406D01*
X035487Y013462D01*
X035519Y013516D01*
X035554Y013568D01*
X035592Y013617D01*
X035634Y013665D01*
X035678Y013709D01*
X035726Y013751D01*
X035775Y013789D01*
X035827Y013824D01*
X035881Y013856D01*
X035937Y013885D01*
X035995Y013910D01*
X036054Y013931D01*
X036114Y013949D01*
X036176Y013962D01*
X036238Y013972D01*
X036300Y013978D01*
X036363Y013980D01*
X036426Y013978D01*
X036488Y013972D01*
X036550Y013962D01*
X036612Y013949D01*
X036672Y013931D01*
X036731Y013910D01*
X036789Y013885D01*
X036845Y013856D01*
X036899Y013824D01*
X036951Y013789D01*
X037000Y013751D01*
X037048Y013709D01*
X037092Y013665D01*
X037134Y013617D01*
X037172Y013568D01*
X037207Y013516D01*
X037239Y013462D01*
X037268Y013406D01*
X037293Y013348D01*
X037314Y013289D01*
X037332Y013229D01*
X037345Y013167D01*
X037355Y013105D01*
X037361Y013043D01*
X037363Y012980D01*
X037361Y012917D01*
X037355Y012855D01*
X037345Y012793D01*
X037332Y012731D01*
X037314Y012671D01*
X037293Y012612D01*
X037268Y012554D01*
X037239Y012498D01*
X037207Y012444D01*
X037172Y012392D01*
X037134Y012343D01*
X037092Y012295D01*
X037048Y012251D01*
X037000Y012209D01*
X036951Y012171D01*
X036899Y012136D01*
X036845Y012104D01*
X036789Y012075D01*
X036731Y012050D01*
X036672Y012029D01*
X036612Y012011D01*
X036550Y011998D01*
X036488Y011988D01*
X036426Y011982D01*
X036363Y011980D01*
X036300Y011982D01*
X036238Y011988D01*
X036176Y011998D01*
X036114Y012011D01*
X036054Y012029D01*
X035995Y012050D01*
X035937Y012075D01*
X035881Y012104D01*
X035827Y012136D01*
X035775Y012171D01*
X035726Y012209D01*
X035678Y012251D01*
X035634Y012295D01*
X035592Y012343D01*
X035554Y012392D01*
X035519Y012444D01*
X035487Y012498D01*
X035458Y012554D01*
X035433Y012612D01*
X035412Y012671D01*
X035394Y012731D01*
X035381Y012793D01*
X035371Y012855D01*
X035365Y012917D01*
X035363Y012980D01*
X036063Y014280D02*
X038663Y014280D01*
X038763Y014380D01*
X038763Y016980D01*
X038663Y017080D01*
X036063Y017080D01*
X035963Y016980D01*
X035963Y014380D01*
X036063Y014280D01*
X036563Y014880D02*
X036663Y014980D01*
X037213Y015080D02*
X037213Y015380D01*
X037063Y015530D01*
X036763Y015530D01*
X036763Y015830D01*
X037063Y015830D01*
X037213Y015980D01*
X037213Y016280D01*
X037513Y016280D01*
X037513Y015980D01*
X037663Y015830D01*
X037763Y015830D01*
X037763Y015930D01*
X038013Y015680D01*
X037763Y015430D01*
X037763Y015530D01*
X037663Y015530D01*
X037513Y015380D01*
X037513Y015080D01*
X037213Y015080D01*
X038013Y014980D02*
X038113Y014880D01*
X038333Y015680D02*
X038483Y015680D01*
X038013Y016430D02*
X038113Y016530D01*
X036663Y016380D02*
X036563Y016480D01*
X039863Y018830D02*
X039863Y020530D01*
X039865Y020547D01*
X039869Y020564D01*
X039876Y020580D01*
X039886Y020594D01*
X039899Y020607D01*
X039913Y020617D01*
X039929Y020624D01*
X039946Y020628D01*
X039963Y020630D01*
X040763Y020630D01*
X040780Y020628D01*
X040797Y020624D01*
X040813Y020617D01*
X040827Y020607D01*
X040840Y020594D01*
X040850Y020580D01*
X040857Y020564D01*
X040861Y020547D01*
X040863Y020530D01*
X040863Y018830D01*
X040861Y018813D01*
X040857Y018796D01*
X040850Y018780D01*
X040840Y018766D01*
X040827Y018753D01*
X040813Y018743D01*
X040797Y018736D01*
X040780Y018732D01*
X040763Y018730D01*
X039963Y018730D01*
X039946Y018732D01*
X039929Y018736D01*
X039913Y018743D01*
X039899Y018753D01*
X039886Y018766D01*
X039876Y018780D01*
X039869Y018796D01*
X039865Y018813D01*
X039863Y018830D01*
X040363Y019530D02*
X040363Y019580D01*
X040363Y019780D02*
X040363Y019830D01*
X040063Y016680D02*
X040663Y016680D01*
X040680Y016678D01*
X040697Y016674D01*
X040713Y016667D01*
X040727Y016657D01*
X040740Y016644D01*
X040750Y016630D01*
X040757Y016614D01*
X040761Y016597D01*
X040763Y016580D01*
X040763Y016430D01*
X040713Y016380D01*
X040713Y014980D01*
X040763Y014930D01*
X040763Y014780D01*
X040761Y014763D01*
X040757Y014746D01*
X040750Y014730D01*
X040740Y014716D01*
X040727Y014703D01*
X040713Y014693D01*
X040697Y014686D01*
X040680Y014682D01*
X040663Y014680D01*
X040063Y014680D01*
X040046Y014682D01*
X040029Y014686D01*
X040013Y014693D01*
X039999Y014703D01*
X039986Y014716D01*
X039976Y014730D01*
X039969Y014746D01*
X039965Y014763D01*
X039963Y014780D01*
X039963Y014930D01*
X040013Y014980D01*
X040013Y016380D01*
X039963Y016430D01*
X039963Y016580D01*
X039965Y016597D01*
X039969Y016614D01*
X039976Y016630D01*
X039986Y016644D01*
X039999Y016657D01*
X040013Y016667D01*
X040029Y016674D01*
X040046Y016678D01*
X040063Y016680D01*
X038363Y013180D02*
X038365Y013243D01*
X038371Y013305D01*
X038381Y013367D01*
X038394Y013429D01*
X038412Y013489D01*
X038433Y013548D01*
X038458Y013606D01*
X038487Y013662D01*
X038519Y013716D01*
X038554Y013768D01*
X038592Y013817D01*
X038634Y013865D01*
X038678Y013909D01*
X038726Y013951D01*
X038775Y013989D01*
X038827Y014024D01*
X038881Y014056D01*
X038937Y014085D01*
X038995Y014110D01*
X039054Y014131D01*
X039114Y014149D01*
X039176Y014162D01*
X039238Y014172D01*
X039300Y014178D01*
X039363Y014180D01*
X039426Y014178D01*
X039488Y014172D01*
X039550Y014162D01*
X039612Y014149D01*
X039672Y014131D01*
X039731Y014110D01*
X039789Y014085D01*
X039845Y014056D01*
X039899Y014024D01*
X039951Y013989D01*
X040000Y013951D01*
X040048Y013909D01*
X040092Y013865D01*
X040134Y013817D01*
X040172Y013768D01*
X040207Y013716D01*
X040239Y013662D01*
X040268Y013606D01*
X040293Y013548D01*
X040314Y013489D01*
X040332Y013429D01*
X040345Y013367D01*
X040355Y013305D01*
X040361Y013243D01*
X040363Y013180D01*
X040361Y013117D01*
X040355Y013055D01*
X040345Y012993D01*
X040332Y012931D01*
X040314Y012871D01*
X040293Y012812D01*
X040268Y012754D01*
X040239Y012698D01*
X040207Y012644D01*
X040172Y012592D01*
X040134Y012543D01*
X040092Y012495D01*
X040048Y012451D01*
X040000Y012409D01*
X039951Y012371D01*
X039899Y012336D01*
X039845Y012304D01*
X039789Y012275D01*
X039731Y012250D01*
X039672Y012229D01*
X039612Y012211D01*
X039550Y012198D01*
X039488Y012188D01*
X039426Y012182D01*
X039363Y012180D01*
X039300Y012182D01*
X039238Y012188D01*
X039176Y012198D01*
X039114Y012211D01*
X039054Y012229D01*
X038995Y012250D01*
X038937Y012275D01*
X038881Y012304D01*
X038827Y012336D01*
X038775Y012371D01*
X038726Y012409D01*
X038678Y012451D01*
X038634Y012495D01*
X038592Y012543D01*
X038554Y012592D01*
X038519Y012644D01*
X038487Y012698D01*
X038458Y012754D01*
X038433Y012812D01*
X038412Y012871D01*
X038394Y012931D01*
X038381Y012993D01*
X038371Y013055D01*
X038365Y013117D01*
X038363Y013180D01*
X039663Y012480D02*
X039863Y012480D01*
X039763Y012580D02*
X039763Y012380D01*
X040113Y010680D02*
X039863Y010430D01*
X039863Y009930D01*
X040113Y009680D01*
X039863Y009430D01*
X039863Y008930D01*
X040113Y008680D01*
X039863Y008430D01*
X039863Y007930D01*
X040113Y007680D01*
X040613Y007680D01*
X040863Y007930D01*
X040863Y008430D01*
X040613Y008680D01*
X040863Y008930D01*
X040863Y009430D01*
X040613Y009680D01*
X040863Y009930D01*
X040863Y010430D01*
X040613Y010680D01*
X040113Y010680D01*
X040113Y010030D02*
X040013Y009930D01*
X040333Y009180D02*
X040483Y009180D01*
X040013Y008480D02*
X040113Y008380D01*
X039013Y006680D02*
X038963Y006680D01*
X038763Y006680D02*
X038713Y006680D01*
X036413Y024030D02*
X036413Y024330D01*
X036563Y024180D02*
X036263Y024180D01*
X034013Y024180D02*
X034015Y024253D01*
X034021Y024326D01*
X034031Y024398D01*
X034045Y024470D01*
X034062Y024541D01*
X034084Y024611D01*
X034109Y024680D01*
X034138Y024747D01*
X034170Y024812D01*
X034206Y024876D01*
X034246Y024938D01*
X034288Y024997D01*
X034334Y025054D01*
X034383Y025108D01*
X034435Y025160D01*
X034489Y025209D01*
X034546Y025255D01*
X034605Y025297D01*
X034667Y025337D01*
X034731Y025373D01*
X034796Y025405D01*
X034863Y025434D01*
X034932Y025459D01*
X035002Y025481D01*
X035073Y025498D01*
X035145Y025512D01*
X035217Y025522D01*
X035290Y025528D01*
X035363Y025530D01*
X035436Y025528D01*
X035509Y025522D01*
X035581Y025512D01*
X035653Y025498D01*
X035724Y025481D01*
X035794Y025459D01*
X035863Y025434D01*
X035930Y025405D01*
X035995Y025373D01*
X036059Y025337D01*
X036121Y025297D01*
X036180Y025255D01*
X036237Y025209D01*
X036291Y025160D01*
X036343Y025108D01*
X036392Y025054D01*
X036438Y024997D01*
X036480Y024938D01*
X036520Y024876D01*
X036556Y024812D01*
X036588Y024747D01*
X036617Y024680D01*
X036642Y024611D01*
X036664Y024541D01*
X036681Y024470D01*
X036695Y024398D01*
X036705Y024326D01*
X036711Y024253D01*
X036713Y024180D01*
X036711Y024107D01*
X036705Y024034D01*
X036695Y023962D01*
X036681Y023890D01*
X036664Y023819D01*
X036642Y023749D01*
X036617Y023680D01*
X036588Y023613D01*
X036556Y023548D01*
X036520Y023484D01*
X036480Y023422D01*
X036438Y023363D01*
X036392Y023306D01*
X036343Y023252D01*
X036291Y023200D01*
X036237Y023151D01*
X036180Y023105D01*
X036121Y023063D01*
X036059Y023023D01*
X035995Y022987D01*
X035930Y022955D01*
X035863Y022926D01*
X035794Y022901D01*
X035724Y022879D01*
X035653Y022862D01*
X035581Y022848D01*
X035509Y022838D01*
X035436Y022832D01*
X035363Y022830D01*
X035290Y022832D01*
X035217Y022838D01*
X035145Y022848D01*
X035073Y022862D01*
X035002Y022879D01*
X034932Y022901D01*
X034863Y022926D01*
X034796Y022955D01*
X034731Y022987D01*
X034667Y023023D01*
X034605Y023063D01*
X034546Y023105D01*
X034489Y023151D01*
X034435Y023200D01*
X034383Y023252D01*
X034334Y023306D01*
X034288Y023363D01*
X034246Y023422D01*
X034206Y023484D01*
X034170Y023548D01*
X034138Y023613D01*
X034109Y023680D01*
X034084Y023749D01*
X034062Y023819D01*
X034045Y023890D01*
X034031Y023962D01*
X034021Y024034D01*
X034015Y024107D01*
X034013Y024180D01*
D13*
X033963Y021480D02*
X033963Y021180D01*
X033963Y020880D01*
X033763Y020880D02*
X033763Y021180D01*
X033763Y021480D01*
X028163Y023080D02*
X027863Y023080D01*
X027563Y023080D01*
X027563Y023280D02*
X027863Y023280D01*
X028163Y023280D01*
X032563Y027580D02*
X032863Y027580D01*
X033163Y027580D01*
X033163Y027780D02*
X032863Y027780D01*
X032563Y027780D01*
X032563Y029580D02*
X032863Y029580D01*
X033163Y029580D01*
X033163Y029780D02*
X032863Y029780D01*
X032563Y029780D01*
X037563Y028280D02*
X037863Y028280D01*
X038163Y028280D01*
X038163Y028080D02*
X037863Y028080D01*
X037563Y028080D01*
X040063Y019780D02*
X040363Y019780D01*
X040663Y019780D01*
X040663Y019580D02*
X040363Y019580D01*
X040063Y019580D01*
X037163Y007280D02*
X036863Y007280D01*
X036563Y007280D01*
X036563Y007080D02*
X036863Y007080D01*
X037163Y007080D01*
X038763Y006980D02*
X038763Y006680D01*
X038763Y006380D01*
X038963Y006380D02*
X038963Y006680D01*
X038963Y006980D01*
X018163Y010580D02*
X017863Y010580D01*
X017563Y010580D01*
X017563Y010780D02*
X017863Y010780D01*
X018163Y010780D01*
X016463Y012380D02*
X016463Y012680D01*
X016463Y012980D01*
X016263Y012980D02*
X016263Y012680D01*
X016263Y012380D01*
X013163Y010280D02*
X012863Y010280D01*
X012563Y010280D01*
X012563Y010080D02*
X012863Y010080D01*
X013163Y010080D01*
X013163Y007780D02*
X012863Y007780D01*
X012563Y007780D01*
X012563Y007580D02*
X012863Y007580D01*
X013163Y007580D01*
X013163Y005280D02*
X012863Y005280D01*
X012563Y005280D01*
X012563Y005080D02*
X012863Y005080D01*
X013163Y005080D01*
X015063Y018580D02*
X015363Y018580D01*
X015663Y018580D01*
X015663Y018780D02*
X015363Y018780D01*
X015063Y018780D01*
X015063Y021080D02*
X015363Y021080D01*
X015663Y021080D01*
X015663Y021280D02*
X015363Y021280D01*
X015063Y021280D01*
X010663Y019280D02*
X010363Y019280D01*
X010063Y019280D01*
X010063Y019080D02*
X010363Y019080D01*
X010663Y019080D01*
X016263Y024880D02*
X016263Y025180D01*
X016263Y025480D01*
X016463Y025480D02*
X016463Y025180D01*
X016463Y024880D01*
X018263Y024880D02*
X018263Y025180D01*
X018263Y025480D01*
X018463Y025480D02*
X018463Y025180D01*
X018463Y024880D01*
X017963Y026880D02*
X017963Y027180D01*
X017963Y027480D01*
X017763Y027480D02*
X017763Y027180D01*
X017763Y026880D01*
X011413Y026430D02*
X011415Y026458D01*
X011421Y026485D01*
X011430Y026511D01*
X011443Y026536D01*
X011460Y026559D01*
X011479Y026579D01*
X011501Y026596D01*
X011525Y026610D01*
X011551Y026620D01*
X011578Y026627D01*
X011606Y026630D01*
X011634Y026629D01*
X011661Y026624D01*
X011688Y026615D01*
X011713Y026603D01*
X011736Y026588D01*
X011757Y026569D01*
X011775Y026548D01*
X011790Y026524D01*
X011801Y026498D01*
X011809Y026472D01*
X011813Y026444D01*
X011813Y026416D01*
X011809Y026388D01*
X011801Y026362D01*
X011790Y026336D01*
X011775Y026312D01*
X011757Y026291D01*
X011736Y026272D01*
X011713Y026257D01*
X011688Y026245D01*
X011661Y026236D01*
X011634Y026231D01*
X011606Y026230D01*
X011578Y026233D01*
X011551Y026240D01*
X011525Y026250D01*
X011501Y026264D01*
X011479Y026281D01*
X011460Y026301D01*
X011443Y026324D01*
X011430Y026349D01*
X011421Y026375D01*
X011415Y026402D01*
X011413Y026430D01*
D14*
X007653Y024905D02*
X007653Y024455D01*
X007728Y024680D02*
X007428Y024680D01*
X007653Y024905D01*
X007268Y024905D02*
X006967Y024905D01*
X006967Y024680D01*
X007118Y024755D01*
X007193Y024755D01*
X007268Y024680D01*
X007268Y024530D01*
X007193Y024455D01*
X007043Y024455D01*
X006967Y024530D01*
X006811Y024530D02*
X006736Y024530D01*
X006736Y024455D01*
X006811Y024455D01*
X006811Y024530D01*
X006811Y024455D02*
X006661Y024305D01*
X006500Y024455D02*
X006200Y024455D01*
X006500Y024755D01*
X006500Y024830D01*
X006425Y024905D01*
X006275Y024905D01*
X006200Y024830D01*
X008138Y022466D02*
X008138Y022165D01*
X008363Y022165D01*
X008288Y022316D01*
X008288Y022391D01*
X008363Y022466D01*
X008513Y022466D01*
X008588Y022391D01*
X008588Y022240D01*
X008513Y022165D01*
X008588Y022005D02*
X008588Y021705D01*
X008288Y022005D01*
X008213Y022005D01*
X008138Y021930D01*
X008138Y021780D01*
X008213Y021705D01*
X009138Y021855D02*
X009588Y021855D01*
X009588Y021705D02*
X009588Y022005D01*
X009513Y022165D02*
X009588Y022240D01*
X009588Y022391D01*
X009513Y022466D01*
X009438Y022466D01*
X009363Y022391D01*
X009363Y022316D01*
X009363Y022391D02*
X009288Y022466D01*
X009213Y022466D01*
X009138Y022391D01*
X009138Y022240D01*
X009213Y022165D01*
X009138Y021855D02*
X009288Y021705D01*
X015388Y027955D02*
X015688Y027955D01*
X015538Y027955D02*
X015538Y028405D01*
X015388Y028255D01*
X017038Y031355D02*
X017188Y031505D01*
X017188Y031805D01*
X017349Y031805D02*
X017349Y031355D01*
X017349Y031505D02*
X017574Y031505D01*
X017649Y031580D01*
X017649Y031730D01*
X017574Y031805D01*
X017349Y031805D01*
X017499Y031505D02*
X017649Y031355D01*
X017809Y031355D02*
X018109Y031355D01*
X017959Y031355D02*
X017959Y031805D01*
X017809Y031655D01*
X017038Y031355D02*
X016888Y031505D01*
X016888Y031805D01*
X014738Y032205D02*
X014288Y032205D01*
X014288Y032505D01*
X014438Y032665D02*
X014288Y032816D01*
X014738Y032816D01*
X014738Y032966D02*
X014738Y032665D01*
X014513Y032355D02*
X014513Y032205D01*
X007178Y032346D02*
X007178Y032573D01*
X007178Y032459D02*
X006838Y032459D01*
X006951Y032346D01*
X006613Y032026D02*
X006688Y031951D01*
X006688Y031801D01*
X006613Y031726D01*
X006463Y031876D02*
X006463Y031951D01*
X006538Y032026D01*
X006613Y032026D01*
X006463Y031951D02*
X006388Y032026D01*
X006313Y032026D01*
X006238Y031951D01*
X006238Y031801D01*
X006313Y031726D01*
X006313Y031566D02*
X006238Y031491D01*
X006238Y031265D01*
X006688Y031265D01*
X006538Y031265D02*
X006538Y031491D01*
X006463Y031566D01*
X006313Y031566D01*
X006238Y031105D02*
X006238Y030955D01*
X006238Y031030D02*
X006613Y031030D01*
X006688Y030955D01*
X006688Y030880D01*
X006613Y030805D01*
X006895Y030573D02*
X006951Y030573D01*
X007008Y030516D01*
X007065Y030573D01*
X007122Y030573D01*
X007178Y030516D01*
X007178Y030403D01*
X007122Y030346D01*
X007008Y030459D02*
X007008Y030516D01*
X006895Y030573D02*
X006838Y030516D01*
X006838Y030403D01*
X006895Y030346D01*
X006895Y031346D02*
X006838Y031403D01*
X006838Y031516D01*
X006895Y031573D01*
X006951Y031573D01*
X007178Y031346D01*
X007178Y031573D01*
X023938Y028505D02*
X023938Y028055D01*
X024163Y028055D01*
X024238Y028130D01*
X024238Y028430D01*
X024163Y028505D01*
X023938Y028505D01*
X024399Y028355D02*
X024549Y028505D01*
X024549Y028055D01*
X024399Y028055D02*
X024699Y028055D01*
X024624Y026505D02*
X024474Y026505D01*
X024399Y026430D01*
X024238Y026430D02*
X024163Y026505D01*
X023938Y026505D01*
X023938Y026055D01*
X024163Y026055D01*
X024238Y026130D01*
X024238Y026430D01*
X024624Y026505D02*
X024699Y026430D01*
X024699Y026355D01*
X024399Y026055D01*
X024699Y026055D01*
X028488Y023870D02*
X028488Y023720D01*
X028563Y023645D01*
X028638Y023645D01*
X028713Y023720D01*
X028713Y023945D01*
X028863Y023945D02*
X028563Y023945D01*
X028488Y023870D01*
X028863Y023945D02*
X028938Y023870D01*
X028938Y023720D01*
X028863Y023645D01*
X028938Y023484D02*
X028938Y023184D01*
X028938Y023334D02*
X028488Y023334D01*
X028638Y023184D01*
X028563Y023024D02*
X028488Y022949D01*
X028488Y022799D01*
X028563Y022724D01*
X028863Y022724D01*
X028938Y022799D01*
X028938Y022949D01*
X028863Y023024D01*
X031038Y023070D02*
X031038Y023220D01*
X031113Y023295D01*
X031413Y022995D01*
X031488Y023070D01*
X031488Y023220D01*
X031413Y023295D01*
X031113Y023295D01*
X031038Y023070D02*
X031113Y022995D01*
X031413Y022995D01*
X031488Y022834D02*
X031488Y022534D01*
X031488Y022684D02*
X031038Y022684D01*
X031188Y022534D01*
X034807Y022980D02*
X034882Y022905D01*
X035032Y022905D01*
X035107Y022980D01*
X035267Y022905D02*
X035568Y023205D01*
X035568Y023280D01*
X035493Y023355D01*
X035343Y023355D01*
X035267Y023280D01*
X035107Y023280D02*
X035032Y023355D01*
X034882Y023355D01*
X034807Y023280D01*
X034807Y022980D01*
X035267Y022905D02*
X035568Y022905D01*
X035728Y022905D02*
X035728Y022980D01*
X036028Y023280D01*
X036028Y023355D01*
X035728Y023355D01*
X036738Y022255D02*
X036888Y022255D01*
X036813Y022255D02*
X036813Y021805D01*
X036738Y021805D02*
X036888Y021805D01*
X037045Y021880D02*
X037045Y022180D01*
X037120Y022255D01*
X037270Y022255D01*
X037345Y022180D01*
X037506Y022030D02*
X037806Y022030D01*
X037731Y021805D02*
X037731Y022255D01*
X037506Y022030D01*
X037345Y021880D02*
X037270Y021805D01*
X037120Y021805D01*
X037045Y021880D01*
X038938Y016845D02*
X039013Y016695D01*
X039163Y016545D01*
X039163Y016770D01*
X039238Y016845D01*
X039313Y016845D01*
X039388Y016770D01*
X039388Y016620D01*
X039313Y016545D01*
X039163Y016545D01*
X039163Y016384D02*
X039013Y016384D01*
X038938Y016309D01*
X038938Y016084D01*
X039388Y016084D01*
X039238Y016084D02*
X039238Y016309D01*
X039163Y016384D01*
X039238Y016234D02*
X039388Y016384D01*
X036478Y016603D02*
X036422Y016546D01*
X036478Y016603D02*
X036478Y016716D01*
X036422Y016773D01*
X036365Y016773D01*
X036308Y016716D01*
X036308Y016659D01*
X036308Y016716D02*
X036251Y016773D01*
X036195Y016773D01*
X036138Y016716D01*
X036138Y016603D01*
X036195Y016546D01*
X036478Y014723D02*
X036478Y014496D01*
X036478Y014609D02*
X036138Y014609D01*
X036251Y014496D01*
X040588Y011045D02*
X040588Y010745D01*
X040588Y010895D02*
X040138Y010895D01*
X040288Y010745D01*
X040938Y010270D02*
X041013Y010345D01*
X041088Y010345D01*
X041163Y010270D01*
X041238Y010345D01*
X041313Y010345D01*
X041388Y010270D01*
X041388Y010120D01*
X041313Y010045D01*
X041388Y009884D02*
X041238Y009734D01*
X041238Y009809D02*
X041238Y009584D01*
X041388Y009584D02*
X040938Y009584D01*
X040938Y009809D01*
X041013Y009884D01*
X041163Y009884D01*
X041238Y009809D01*
X041013Y010045D02*
X040938Y010120D01*
X040938Y010270D01*
X041163Y010270D02*
X041163Y010195D01*
X038478Y010216D02*
X038478Y010103D01*
X038422Y010046D01*
X038308Y010159D02*
X038308Y010216D01*
X038365Y010273D01*
X038422Y010273D01*
X038478Y010216D01*
X038308Y010216D02*
X038251Y010273D01*
X038195Y010273D01*
X038138Y010216D01*
X038138Y010103D01*
X038195Y010046D01*
X038478Y008223D02*
X038478Y007996D01*
X038478Y008109D02*
X038138Y008109D01*
X038251Y007996D01*
X031450Y000850D02*
X031450Y000660D01*
X031513Y000660D02*
X031386Y000660D01*
X031292Y000691D02*
X031260Y000660D01*
X031197Y000660D01*
X031165Y000691D01*
X031165Y000850D01*
X031292Y000850D02*
X031292Y000691D01*
X031386Y000786D02*
X031450Y000850D01*
X022863Y001180D02*
X022863Y002180D01*
X022863Y003180D01*
X022663Y003180D01*
X022663Y002180D01*
X022863Y002180D01*
X022663Y002180D01*
X022663Y001180D01*
X022863Y001180D01*
X022863Y001214D02*
X022663Y001214D01*
X022663Y001262D02*
X022863Y001262D01*
X022863Y001311D02*
X022663Y001311D01*
X022663Y001359D02*
X022863Y001359D01*
X022863Y001408D02*
X022663Y001408D01*
X022663Y001456D02*
X022863Y001456D01*
X022863Y001505D02*
X022663Y001505D01*
X022663Y001553D02*
X022863Y001553D01*
X022863Y001602D02*
X022663Y001602D01*
X022663Y001650D02*
X022863Y001650D01*
X022863Y001699D02*
X022663Y001699D01*
X022663Y001747D02*
X022863Y001747D01*
X022863Y001796D02*
X022663Y001796D01*
X022663Y001844D02*
X022863Y001844D01*
X022863Y001893D02*
X022663Y001893D01*
X022663Y001941D02*
X022863Y001941D01*
X022863Y001990D02*
X022663Y001990D01*
X022663Y002038D02*
X022863Y002038D01*
X022863Y002087D02*
X022663Y002087D01*
X022663Y002135D02*
X022863Y002135D01*
X022863Y002184D02*
X022663Y002184D01*
X022663Y002232D02*
X022863Y002232D01*
X022863Y002281D02*
X022663Y002281D01*
X022663Y002329D02*
X022863Y002329D01*
X022863Y002378D02*
X022663Y002378D01*
X022663Y002426D02*
X022863Y002426D01*
X022863Y002475D02*
X022663Y002475D01*
X022663Y002523D02*
X022863Y002523D01*
X022863Y002572D02*
X022663Y002572D01*
X022663Y002620D02*
X022863Y002620D01*
X022863Y002669D02*
X022663Y002669D01*
X022663Y002717D02*
X022863Y002717D01*
X022863Y002766D02*
X022663Y002766D01*
X022663Y002814D02*
X022863Y002814D01*
X022863Y002863D02*
X022663Y002863D01*
X022663Y002911D02*
X022863Y002911D01*
X022863Y002960D02*
X022663Y002960D01*
X022663Y003008D02*
X022863Y003008D01*
X022863Y003057D02*
X022663Y003057D01*
X022663Y003105D02*
X022863Y003105D01*
X022863Y003154D02*
X022663Y003154D01*
X022063Y003154D02*
X021863Y003154D01*
X021863Y003180D02*
X022063Y003180D01*
X022063Y002180D01*
X021863Y002180D01*
X021863Y003180D01*
X021863Y003105D02*
X022063Y003105D01*
X022063Y003057D02*
X021863Y003057D01*
X021863Y003008D02*
X022063Y003008D01*
X022063Y002960D02*
X021863Y002960D01*
X021863Y002911D02*
X022063Y002911D01*
X022063Y002863D02*
X021863Y002863D01*
X021863Y002814D02*
X022063Y002814D01*
X022063Y002766D02*
X021863Y002766D01*
X021863Y002717D02*
X022063Y002717D01*
X022063Y002669D02*
X021863Y002669D01*
X021863Y002620D02*
X022063Y002620D01*
X022063Y002572D02*
X021863Y002572D01*
X021863Y002523D02*
X022063Y002523D01*
X022063Y002475D02*
X021863Y002475D01*
X021863Y002426D02*
X022063Y002426D01*
X022063Y002378D02*
X021863Y002378D01*
X021863Y002329D02*
X022063Y002329D01*
X022063Y002281D02*
X021863Y002281D01*
X021863Y002232D02*
X022063Y002232D01*
X022063Y002184D02*
X021863Y002184D01*
X021863Y002180D02*
X022063Y002180D01*
X022063Y001180D01*
X021863Y001180D01*
X021863Y002180D01*
X021863Y002135D02*
X022063Y002135D01*
X022063Y002087D02*
X021863Y002087D01*
X021863Y002038D02*
X022063Y002038D01*
X022063Y001990D02*
X021863Y001990D01*
X021863Y001941D02*
X022063Y001941D01*
X022063Y001893D02*
X021863Y001893D01*
X021863Y001844D02*
X022063Y001844D01*
X022063Y001796D02*
X021863Y001796D01*
X021863Y001747D02*
X022063Y001747D01*
X022063Y001699D02*
X021863Y001699D01*
X021863Y001650D02*
X022063Y001650D01*
X022063Y001602D02*
X021863Y001602D01*
X021863Y001553D02*
X022063Y001553D01*
X022063Y001505D02*
X021863Y001505D01*
X021863Y001456D02*
X022063Y001456D01*
X022063Y001408D02*
X021863Y001408D01*
X021863Y001359D02*
X022063Y001359D01*
X022063Y001311D02*
X021863Y001311D01*
X021863Y001262D02*
X022063Y001262D01*
X022063Y001214D02*
X021863Y001214D01*
X021688Y001280D02*
X021688Y001430D01*
X021613Y001505D01*
X021538Y001505D01*
X021463Y001430D01*
X021463Y001280D01*
X021388Y001205D01*
X021313Y001205D01*
X021238Y001280D01*
X021238Y001430D01*
X021313Y001505D01*
X021238Y001665D02*
X021538Y001665D01*
X021688Y001816D01*
X021538Y001966D01*
X021238Y001966D01*
X021238Y002126D02*
X021463Y002126D01*
X021388Y002276D01*
X021388Y002351D01*
X021463Y002426D01*
X021613Y002426D01*
X021688Y002351D01*
X021688Y002201D01*
X021613Y002126D01*
X021238Y002126D02*
X021238Y002426D01*
X021213Y002455D02*
X021288Y002530D01*
X021288Y002605D01*
X021213Y002680D01*
X020988Y002680D01*
X020988Y002530D01*
X021063Y002455D01*
X021213Y002455D01*
X020988Y002680D02*
X021138Y002830D01*
X021288Y002905D01*
X021688Y001280D02*
X021613Y001205D01*
X018438Y000555D02*
X018138Y000555D01*
X018288Y000555D02*
X018288Y001005D01*
X018138Y000855D01*
X017688Y001280D02*
X017613Y001205D01*
X017688Y001280D02*
X017688Y001430D01*
X017613Y001505D01*
X017538Y001505D01*
X017463Y001430D01*
X017463Y001280D01*
X017388Y001205D01*
X017313Y001205D01*
X017238Y001280D01*
X017238Y001430D01*
X017313Y001505D01*
X017238Y001665D02*
X017538Y001665D01*
X017688Y001816D01*
X017538Y001966D01*
X017238Y001966D01*
X017313Y002126D02*
X017238Y002201D01*
X017238Y002351D01*
X017313Y002426D01*
X017388Y002426D01*
X017688Y002126D01*
X017688Y002426D01*
X014638Y002426D02*
X014638Y002126D01*
X014338Y002426D01*
X014263Y002426D01*
X014188Y002351D01*
X014188Y002201D01*
X014263Y002126D01*
X014263Y001966D02*
X014413Y001966D01*
X014488Y001891D01*
X014488Y001665D01*
X014638Y001665D02*
X014188Y001665D01*
X014188Y001891D01*
X014263Y001966D01*
X014188Y001505D02*
X014188Y001355D01*
X014188Y001430D02*
X014563Y001430D01*
X014638Y001355D01*
X014638Y001280D01*
X014563Y001205D01*
X019048Y005318D02*
X019388Y005318D01*
X019388Y005205D02*
X019388Y005432D01*
X019161Y005205D02*
X019048Y005318D01*
X019105Y006205D02*
X019048Y006262D01*
X019048Y006375D01*
X019105Y006432D01*
X019161Y006432D01*
X019388Y006205D01*
X019388Y006432D01*
X019332Y007205D02*
X019388Y007262D01*
X019388Y007375D01*
X019332Y007432D01*
X019275Y007432D01*
X019218Y007375D01*
X019218Y007318D01*
X019218Y007375D02*
X019161Y007432D01*
X019105Y007432D01*
X019048Y007375D01*
X019048Y007262D01*
X019105Y007205D01*
X019134Y007855D02*
X019134Y008305D01*
X018909Y008080D01*
X019209Y008080D01*
X018749Y008080D02*
X018674Y008005D01*
X018449Y008005D01*
X018449Y007855D02*
X018449Y008305D01*
X018674Y008305D01*
X018749Y008230D01*
X018749Y008080D01*
X018288Y008305D02*
X018138Y008305D01*
X018213Y008305D02*
X018213Y007930D01*
X018138Y007855D01*
X018063Y007855D01*
X017988Y007930D01*
X015731Y010355D02*
X015581Y010355D01*
X015506Y010430D01*
X015345Y010430D02*
X015270Y010355D01*
X015120Y010355D01*
X015045Y010430D01*
X015045Y010730D01*
X015120Y010805D01*
X015270Y010805D01*
X015345Y010730D01*
X015506Y010730D02*
X015581Y010805D01*
X015731Y010805D01*
X015806Y010730D01*
X015806Y010655D01*
X015731Y010580D01*
X015806Y010505D01*
X015806Y010430D01*
X015731Y010355D01*
X015731Y010580D02*
X015656Y010580D01*
X014888Y010355D02*
X014738Y010355D01*
X014813Y010355D02*
X014813Y010805D01*
X014738Y010805D02*
X014888Y010805D01*
X011988Y009430D02*
X011913Y009505D01*
X011763Y009505D01*
X011688Y009430D01*
X011988Y009430D02*
X011988Y009355D01*
X011688Y009055D01*
X011988Y009055D01*
X010988Y009055D02*
X010688Y009055D01*
X010838Y009055D02*
X010838Y009505D01*
X010688Y009355D01*
X009588Y007655D02*
X009588Y007355D01*
X009588Y007505D02*
X009138Y007505D01*
X009288Y007355D01*
X008588Y007305D02*
X008588Y007005D01*
X008588Y007155D02*
X008138Y007155D01*
X008288Y007005D01*
X008363Y007465D02*
X008363Y007766D01*
X008138Y007691D02*
X008363Y007465D01*
X008588Y007691D02*
X008138Y007691D01*
X005488Y007815D02*
X005188Y008116D01*
X005113Y008116D01*
X005038Y008041D01*
X005038Y007890D01*
X005113Y007815D01*
X005038Y007655D02*
X005038Y007355D01*
X005488Y007355D01*
X005263Y007355D02*
X005263Y007505D01*
X005488Y007815D02*
X005488Y008116D01*
X005413Y008276D02*
X005488Y008351D01*
X005488Y008501D01*
X005413Y008576D01*
X005263Y008576D01*
X005188Y008501D01*
X005188Y008426D01*
X005263Y008276D01*
X005038Y008276D01*
X005038Y008576D01*
X010388Y011980D02*
X010463Y011905D01*
X010538Y011905D01*
X010613Y011980D01*
X010613Y012355D01*
X010538Y012355D02*
X010688Y012355D01*
X010849Y012355D02*
X011074Y012355D01*
X011149Y012280D01*
X011149Y012130D01*
X011074Y012055D01*
X010849Y012055D01*
X010849Y011905D02*
X010849Y012355D01*
X011309Y012205D02*
X011459Y012355D01*
X011459Y011905D01*
X011309Y011905D02*
X011609Y011905D01*
X004138Y013987D02*
X004138Y014018D01*
X004107Y014050D01*
X003948Y014050D01*
X003948Y014018D02*
X003948Y014082D01*
X003980Y014176D02*
X003948Y014208D01*
X003948Y014271D01*
X003980Y014303D01*
X004011Y014303D01*
X004138Y014176D01*
X004138Y014303D01*
X004138Y013987D02*
X004107Y013955D01*
X007313Y002426D02*
X007388Y002426D01*
X007463Y002351D01*
X007538Y002426D01*
X007613Y002426D01*
X007688Y002351D01*
X007688Y002201D01*
X007613Y002126D01*
X007538Y001966D02*
X007238Y001966D01*
X007313Y002126D02*
X007238Y002201D01*
X007238Y002351D01*
X007313Y002426D01*
X007463Y002351D02*
X007463Y002276D01*
X007538Y001966D02*
X007688Y001816D01*
X007538Y001665D01*
X007238Y001665D01*
X007313Y001505D02*
X007238Y001430D01*
X007238Y001280D01*
X007313Y001205D01*
X007388Y001205D01*
X007463Y001280D01*
X007463Y001430D01*
X007538Y001505D01*
X007613Y001505D01*
X007688Y001430D01*
X007688Y001280D01*
X007613Y001205D01*
X007863Y001214D02*
X008063Y001214D01*
X008063Y001180D02*
X008063Y002180D01*
X007863Y002180D01*
X007863Y001180D01*
X008063Y001180D01*
X008063Y001262D02*
X007863Y001262D01*
X007863Y001311D02*
X008063Y001311D01*
X008063Y001359D02*
X007863Y001359D01*
X007863Y001408D02*
X008063Y001408D01*
X008063Y001456D02*
X007863Y001456D01*
X007863Y001505D02*
X008063Y001505D01*
X008063Y001553D02*
X007863Y001553D01*
X007863Y001602D02*
X008063Y001602D01*
X008063Y001650D02*
X007863Y001650D01*
X007863Y001699D02*
X008063Y001699D01*
X008063Y001747D02*
X007863Y001747D01*
X007863Y001796D02*
X008063Y001796D01*
X008063Y001844D02*
X007863Y001844D01*
X007863Y001893D02*
X008063Y001893D01*
X008063Y001941D02*
X007863Y001941D01*
X007863Y001990D02*
X008063Y001990D01*
X008063Y002038D02*
X007863Y002038D01*
X007863Y002087D02*
X008063Y002087D01*
X008063Y002135D02*
X007863Y002135D01*
X008663Y002135D02*
X008863Y002135D01*
X008863Y002180D02*
X008663Y002180D01*
X008663Y001180D01*
X008863Y001180D01*
X008863Y002180D01*
X008863Y002087D02*
X008663Y002087D01*
X008663Y002038D02*
X008863Y002038D01*
X008863Y001990D02*
X008663Y001990D01*
X008663Y001941D02*
X008863Y001941D01*
X008863Y001893D02*
X008663Y001893D01*
X008663Y001844D02*
X008863Y001844D01*
X008863Y001796D02*
X008663Y001796D01*
X008663Y001747D02*
X008863Y001747D01*
X008863Y001699D02*
X008663Y001699D01*
X008663Y001650D02*
X008863Y001650D01*
X008863Y001602D02*
X008663Y001602D01*
X008663Y001553D02*
X008863Y001553D01*
X008863Y001505D02*
X008663Y001505D01*
X008663Y001456D02*
X008863Y001456D01*
X008863Y001408D02*
X008663Y001408D01*
X008663Y001359D02*
X008863Y001359D01*
X008863Y001311D02*
X008663Y001311D01*
X008663Y001262D02*
X008863Y001262D01*
X008863Y001214D02*
X008663Y001214D01*
X029313Y027205D02*
X029388Y027205D01*
X029463Y027280D01*
X029463Y027430D01*
X029538Y027505D01*
X029613Y027505D01*
X029688Y027430D01*
X029688Y027280D01*
X029613Y027205D01*
X029313Y027205D02*
X029238Y027280D01*
X029238Y027430D01*
X029313Y027505D01*
X029238Y027665D02*
X029538Y027665D01*
X029688Y027816D01*
X029538Y027966D01*
X029238Y027966D01*
X029388Y028126D02*
X029238Y028276D01*
X029688Y028276D01*
X029688Y028126D02*
X029688Y028426D01*
X029263Y031274D02*
X029338Y031349D01*
X029338Y031499D01*
X029263Y031574D01*
X029188Y031574D01*
X029113Y031499D01*
X029113Y031349D01*
X029038Y031274D01*
X028963Y031274D01*
X028888Y031349D01*
X028888Y031499D01*
X028963Y031574D01*
X028888Y031884D02*
X028888Y032034D01*
X028888Y031959D02*
X029263Y031959D01*
X029338Y031884D01*
X029338Y031809D01*
X029263Y031734D01*
X029388Y031945D02*
X029238Y032095D01*
X029688Y032095D01*
X029688Y031945D02*
X029688Y032245D01*
X029338Y032195D02*
X029338Y032495D01*
X029338Y032345D02*
X028888Y032345D01*
X029038Y032195D01*
X025849Y031955D02*
X025549Y031955D01*
X025549Y031730D01*
X025699Y031805D01*
X025774Y031805D01*
X025849Y031730D01*
X025849Y031580D01*
X025774Y031505D01*
X025624Y031505D01*
X025549Y031580D01*
X025388Y031580D02*
X025313Y031505D01*
X025163Y031505D01*
X025088Y031580D01*
X025088Y031880D01*
X025163Y031955D01*
X025313Y031955D01*
X025388Y031880D01*
X025238Y032205D02*
X024788Y032205D01*
X024788Y032505D01*
X024863Y032665D02*
X024788Y032740D01*
X024788Y032891D01*
X024863Y032966D01*
X024938Y032966D01*
X025013Y032891D01*
X025088Y032966D01*
X025163Y032966D01*
X025238Y032891D01*
X025238Y032740D01*
X025163Y032665D01*
X025013Y032816D02*
X025013Y032891D01*
X025013Y032355D02*
X025013Y032205D01*
X034038Y032255D02*
X034188Y032255D01*
X034113Y032255D02*
X034113Y031805D01*
X034038Y031805D02*
X034188Y031805D01*
X034345Y031880D02*
X034420Y031805D01*
X034570Y031805D01*
X034645Y031880D01*
X034806Y031880D02*
X034881Y031805D01*
X035031Y031805D01*
X035106Y031880D01*
X035106Y032030D01*
X035031Y032105D01*
X034956Y032105D01*
X034806Y032030D01*
X034806Y032255D01*
X035106Y032255D01*
X034645Y032180D02*
X034570Y032255D01*
X034420Y032255D01*
X034345Y032180D01*
X034345Y031880D01*
D15*
X040363Y016755D03*
X040363Y014605D03*
X036863Y011255D03*
X036863Y009105D03*
X035863Y009255D03*
X035863Y007105D03*
X011363Y006605D03*
X011363Y008755D03*
D16*
X016288Y016680D03*
X018438Y016680D03*
X018938Y021180D03*
X018938Y022180D03*
X016788Y022180D03*
X016788Y021180D03*
X013938Y031180D03*
X011788Y031180D03*
X033788Y026180D03*
X035938Y026180D03*
X038288Y011680D03*
X040438Y011680D03*
D17*
X034218Y010802D02*
X034218Y000958D01*
X028508Y000958D01*
X028508Y010802D01*
X034218Y010802D01*
X037663Y005470D02*
X039063Y005470D01*
X039063Y002890D01*
X037663Y002890D01*
X037663Y005470D01*
X013863Y012180D02*
X011863Y012180D01*
X011863Y026180D01*
X012463Y026180D01*
X012465Y026141D01*
X012471Y026102D01*
X012480Y026064D01*
X012493Y026027D01*
X012510Y025991D01*
X012530Y025958D01*
X012554Y025926D01*
X012580Y025897D01*
X012609Y025871D01*
X012641Y025847D01*
X012674Y025827D01*
X012710Y025810D01*
X012747Y025797D01*
X012785Y025788D01*
X012824Y025782D01*
X012863Y025780D01*
X012902Y025782D01*
X012941Y025788D01*
X012979Y025797D01*
X013016Y025810D01*
X013052Y025827D01*
X013085Y025847D01*
X013117Y025871D01*
X013146Y025897D01*
X013172Y025926D01*
X013196Y025958D01*
X013216Y025991D01*
X013233Y026027D01*
X013246Y026064D01*
X013255Y026102D01*
X013261Y026141D01*
X013263Y026180D01*
X013863Y026180D01*
X013863Y012180D01*
X013240Y024970D02*
X013026Y024970D01*
X013133Y024970D02*
X013133Y025290D01*
X013026Y025184D01*
X012871Y025237D02*
X012818Y025290D01*
X012711Y025290D01*
X012658Y025237D01*
X012658Y025023D01*
X012711Y024970D01*
X012818Y024970D01*
X012871Y025023D01*
X012519Y024970D02*
X012412Y024970D01*
X012466Y024970D02*
X012466Y025290D01*
X012519Y025290D02*
X012412Y025290D01*
X009399Y026487D02*
X008769Y026487D01*
X009399Y026487D02*
X009399Y027117D01*
X006899Y026487D02*
X003769Y026487D01*
X003769Y029873D01*
X009399Y029873D01*
X009399Y029243D01*
D18*
X006013Y014680D03*
D19*
X004363Y014680D03*
D20*
X007588Y014680D03*
X007588Y013600D03*
X007588Y012510D03*
X007588Y011420D03*
X007588Y010330D03*
X007588Y009250D03*
X007588Y008160D03*
X007588Y015770D03*
X007588Y016850D03*
X007588Y017940D03*
X007588Y019030D03*
X007588Y020110D03*
X007588Y021200D03*
D21*
X007088Y020650D03*
X007088Y019560D03*
X007088Y018480D03*
X007088Y017400D03*
X007088Y016310D03*
X007088Y015220D03*
X007088Y014140D03*
X007088Y013050D03*
X007088Y011960D03*
X007088Y010880D03*
X007088Y009790D03*
X007088Y008700D03*
D22*
X006908Y005930D02*
X006803Y005930D01*
X006698Y005825D01*
X006698Y005615D01*
X006803Y005510D01*
X006698Y005285D02*
X007328Y004865D01*
X007328Y005285D02*
X006698Y004865D01*
X007328Y005510D02*
X006908Y005930D01*
X007328Y005930D02*
X007328Y005510D01*
D23*
X022788Y026180D03*
X022788Y028180D03*
D24*
X022088Y028180D03*
X022088Y026180D03*
X025638Y026180D03*
X025638Y028180D03*
D25*
X023463Y032280D02*
X023463Y033080D01*
X022963Y033080D02*
X022963Y032280D01*
X022963Y033080D01*
X022863Y032680D02*
X021863Y032680D01*
X021763Y033080D02*
X021763Y032280D01*
X021763Y033080D01*
X021263Y033080D02*
X021263Y032280D01*
X022263Y032280D02*
X022263Y033080D01*
X022463Y033080D02*
X022463Y032280D01*
X017768Y026010D02*
X017768Y025790D01*
X017841Y025790D02*
X017694Y025790D01*
X017620Y025827D02*
X017583Y025790D01*
X017510Y025790D01*
X017473Y025827D01*
X017473Y025973D01*
X017510Y026010D01*
X017583Y026010D01*
X017620Y025973D01*
X017694Y025937D02*
X017768Y026010D01*
X015841Y026010D02*
X015768Y025973D01*
X015694Y025900D01*
X015804Y025900D01*
X015841Y025863D01*
X015841Y025827D01*
X015804Y025790D01*
X015731Y025790D01*
X015694Y025827D01*
X015694Y025900D01*
X015620Y025827D02*
X015583Y025790D01*
X015510Y025790D01*
X015473Y025827D01*
X015473Y025973D01*
X015510Y026010D01*
X015583Y026010D01*
X015620Y025973D01*
X014953Y023058D02*
X014953Y022911D01*
X014953Y022984D02*
X014733Y022984D01*
X014806Y022911D01*
X014770Y022837D02*
X014917Y022837D01*
X014953Y022800D01*
X014953Y022727D01*
X014917Y022690D01*
X014770Y022690D01*
X014733Y022727D01*
X014733Y022800D01*
X014770Y022837D01*
X014880Y022763D02*
X014953Y022837D01*
X016931Y021160D02*
X017041Y021160D01*
X017078Y021123D01*
X017078Y021050D01*
X017041Y021013D01*
X016931Y021013D01*
X016931Y020940D02*
X016931Y021160D01*
X017005Y021013D02*
X017078Y020940D01*
X017152Y020977D02*
X017189Y020940D01*
X017262Y020940D01*
X017299Y020977D01*
X017299Y021013D01*
X017262Y021050D01*
X017189Y021050D01*
X017152Y021087D01*
X017152Y021123D01*
X017189Y021160D01*
X017262Y021160D01*
X017299Y021123D01*
X017299Y021087D01*
X017262Y021050D01*
X017189Y021050D02*
X017152Y021013D01*
X017152Y020977D01*
X018373Y022200D02*
X018373Y022420D01*
X018483Y022420D01*
X018520Y022383D01*
X018520Y022310D01*
X018483Y022273D01*
X018373Y022273D01*
X018447Y022273D02*
X018520Y022200D01*
X018594Y022200D02*
X018594Y022237D01*
X018741Y022383D01*
X018741Y022420D01*
X018594Y022420D01*
X012963Y032280D02*
X012963Y033080D01*
X012463Y033080D02*
X012463Y032280D01*
X012463Y033080D01*
X012363Y032680D02*
X011363Y032680D01*
X011263Y033080D02*
X011263Y032280D01*
X011263Y033080D01*
X010763Y033080D02*
X010763Y032280D01*
X011763Y032280D02*
X011763Y033080D01*
X011963Y033080D02*
X011963Y032280D01*
X035733Y013542D02*
X035843Y013432D01*
X035843Y013579D01*
X035953Y013542D02*
X035733Y013542D01*
X035770Y013358D02*
X035733Y013321D01*
X035733Y013248D01*
X035770Y013211D01*
X035770Y013137D02*
X035733Y013100D01*
X035733Y013027D01*
X035770Y012990D01*
X035917Y012990D01*
X035953Y013027D01*
X035953Y013100D01*
X035917Y013137D01*
X035953Y013211D02*
X035806Y013358D01*
X035770Y013358D01*
X035953Y013358D02*
X035953Y013211D01*
X038910Y012533D02*
X038910Y012387D01*
X038947Y012350D01*
X039020Y012350D01*
X039057Y012387D01*
X039131Y012350D02*
X039278Y012497D01*
X039278Y012533D01*
X039241Y012570D01*
X039168Y012570D01*
X039131Y012533D01*
X039057Y012533D02*
X039020Y012570D01*
X038947Y012570D01*
X038910Y012533D01*
X039131Y012350D02*
X039278Y012350D01*
X039352Y012387D02*
X039389Y012350D01*
X039462Y012350D01*
X039499Y012387D01*
X039499Y012533D01*
X039352Y012387D01*
X039352Y012533D01*
X039389Y012570D01*
X039462Y012570D01*
X039499Y012533D01*
X040383Y014727D02*
X040383Y014837D01*
X040420Y014874D01*
X040493Y014874D01*
X040530Y014837D01*
X040530Y014727D01*
X040603Y014727D02*
X040383Y014727D01*
X040530Y014800D02*
X040603Y014874D01*
X040603Y014948D02*
X040603Y015095D01*
X040603Y015021D02*
X040383Y015021D01*
X040456Y014948D01*
X040493Y015169D02*
X040493Y015316D01*
X040383Y015279D02*
X040493Y015169D01*
X040603Y015279D02*
X040383Y015279D01*
X038613Y005116D02*
X038613Y004969D01*
X038466Y005116D01*
X038430Y005116D01*
X038393Y005079D01*
X038393Y005006D01*
X038430Y004969D01*
X038430Y004895D02*
X038393Y004858D01*
X038393Y004785D01*
X038430Y004748D01*
X038577Y004748D01*
X038613Y004785D01*
X038613Y004858D01*
X038577Y004895D01*
X038613Y004674D02*
X038613Y004601D01*
X038613Y004637D02*
X038393Y004637D01*
X038393Y004601D02*
X038393Y004674D01*
X035441Y004700D02*
X035331Y004700D01*
X035294Y004737D01*
X035294Y004773D01*
X035331Y004810D01*
X035404Y004810D01*
X035441Y004773D01*
X035441Y004627D01*
X035404Y004590D01*
X035331Y004590D01*
X035294Y004627D01*
X035220Y004590D02*
X035147Y004663D01*
X035183Y004663D02*
X035073Y004663D01*
X035073Y004590D02*
X035073Y004810D01*
X035183Y004810D01*
X035220Y004773D01*
X035220Y004700D01*
X035183Y004663D01*
X034603Y002779D02*
X034603Y002632D01*
X034456Y002779D01*
X034420Y002779D01*
X034383Y002742D01*
X034383Y002669D01*
X034420Y002632D01*
X034420Y002558D02*
X034383Y002521D01*
X034383Y002448D01*
X034420Y002411D01*
X034420Y002337D02*
X034383Y002300D01*
X034383Y002227D01*
X034420Y002190D01*
X034567Y002190D01*
X034603Y002227D01*
X034603Y002300D01*
X034567Y002337D01*
X034603Y002411D02*
X034456Y002558D01*
X034420Y002558D01*
X034603Y002558D02*
X034603Y002411D01*
X036210Y001183D02*
X036210Y001037D01*
X036247Y001000D01*
X036320Y001000D01*
X036357Y001037D01*
X036431Y001000D02*
X036578Y001147D01*
X036578Y001183D01*
X036541Y001220D01*
X036468Y001220D01*
X036431Y001183D01*
X036357Y001183D02*
X036320Y001220D01*
X036247Y001220D01*
X036210Y001183D01*
X036431Y001000D02*
X036578Y001000D01*
X036652Y001037D02*
X036689Y001000D01*
X036762Y001000D01*
X036799Y001037D01*
X036799Y001073D01*
X036762Y001110D01*
X036726Y001110D01*
X036762Y001110D02*
X036799Y001147D01*
X036799Y001183D01*
X036762Y001220D01*
X036689Y001220D01*
X036652Y001183D01*
X033162Y004327D02*
X033125Y004290D01*
X033052Y004290D01*
X033015Y004327D01*
X033162Y004473D01*
X033162Y004327D01*
X033162Y004473D02*
X033125Y004510D01*
X033052Y004510D01*
X033015Y004473D01*
X033015Y004327D01*
X032941Y004290D02*
X032794Y004290D01*
X032868Y004290D02*
X032868Y004510D01*
X032794Y004437D01*
X032720Y004473D02*
X032720Y004400D01*
X032683Y004363D01*
X032573Y004363D01*
X032573Y004290D02*
X032573Y004510D01*
X032683Y004510D01*
X032720Y004473D01*
X032647Y004363D02*
X032720Y004290D01*
X031162Y004290D02*
X031015Y004290D01*
X031089Y004290D02*
X031089Y004510D01*
X031015Y004437D01*
X030868Y004510D02*
X030868Y004290D01*
X030941Y004290D02*
X030794Y004290D01*
X030720Y004290D02*
X030647Y004363D01*
X030683Y004363D02*
X030573Y004363D01*
X030573Y004290D02*
X030573Y004510D01*
X030683Y004510D01*
X030720Y004473D01*
X030720Y004400D01*
X030683Y004363D01*
X030794Y004437D02*
X030868Y004510D01*
D26*
X023933Y032680D03*
X020793Y032680D03*
X013433Y032680D03*
X010293Y032680D03*
D27*
X011883Y032060D02*
X011883Y031710D01*
X011883Y031827D02*
X012058Y031827D01*
X012117Y031885D01*
X012117Y032002D01*
X012058Y032060D01*
X011883Y032060D01*
X012000Y031827D02*
X012117Y031710D01*
X012242Y031710D02*
X012476Y031710D01*
X012359Y031710D02*
X012359Y032060D01*
X012242Y031944D01*
X012601Y031885D02*
X012718Y031944D01*
X012777Y031944D01*
X012835Y031885D01*
X012835Y031768D01*
X012777Y031710D01*
X012660Y031710D01*
X012601Y031768D01*
X012601Y031885D02*
X012601Y032060D01*
X012835Y032060D01*
X012243Y029877D02*
X012183Y029877D01*
X012183Y029637D01*
X012243Y029877D02*
X012483Y029637D01*
X012543Y029637D01*
X012543Y029509D02*
X012543Y029268D01*
X012543Y029388D02*
X012183Y029388D01*
X012303Y029268D01*
X012243Y029140D02*
X012183Y029080D01*
X012183Y028960D01*
X012243Y028900D01*
X012483Y028900D01*
X012543Y028960D01*
X012543Y029080D01*
X012483Y029140D01*
X021083Y031060D02*
X021143Y031000D01*
X021263Y031000D01*
X021323Y031060D01*
X021452Y031000D02*
X021692Y031000D01*
X021572Y031000D02*
X021572Y031360D01*
X021452Y031240D01*
X021323Y031300D02*
X021263Y031360D01*
X021143Y031360D01*
X021083Y031300D01*
X021083Y031060D01*
X021820Y031060D02*
X021880Y031000D01*
X022000Y031000D01*
X022060Y031060D01*
X022060Y031120D01*
X022000Y031180D01*
X021820Y031180D01*
X021820Y031060D01*
X021820Y031180D02*
X021940Y031300D01*
X022060Y031360D01*
X033883Y027060D02*
X033883Y026710D01*
X033883Y026827D02*
X034058Y026827D01*
X034117Y026885D01*
X034117Y027002D01*
X034058Y027060D01*
X033883Y027060D01*
X034000Y026827D02*
X034117Y026710D01*
X034242Y026710D02*
X034476Y026710D01*
X034359Y026710D02*
X034359Y027060D01*
X034242Y026944D01*
X034601Y027002D02*
X034660Y027060D01*
X034777Y027060D01*
X034835Y027002D01*
X034835Y026944D01*
X034777Y026885D01*
X034835Y026827D01*
X034835Y026768D01*
X034777Y026710D01*
X034660Y026710D01*
X034601Y026768D01*
X034718Y026885D02*
X034777Y026885D01*
X018141Y016150D02*
X018141Y015800D01*
X018024Y015800D02*
X018258Y015800D01*
X018024Y016034D02*
X018141Y016150D01*
X017899Y016092D02*
X017899Y015975D01*
X017840Y015917D01*
X017665Y015917D01*
X017782Y015917D02*
X017899Y015800D01*
X017665Y015800D02*
X017665Y016150D01*
X017840Y016150D01*
X017899Y016092D01*
X010833Y007652D02*
X010833Y007418D01*
X010600Y007652D01*
X010541Y007652D01*
X010483Y007593D01*
X010483Y007477D01*
X010541Y007418D01*
X010483Y007176D02*
X010833Y007176D01*
X010833Y007059D02*
X010833Y007293D01*
X010600Y007059D02*
X010483Y007176D01*
X010541Y006934D02*
X010483Y006875D01*
X010483Y006700D01*
X010833Y006700D01*
X010716Y006700D02*
X010716Y006875D01*
X010658Y006934D01*
X010541Y006934D01*
X010716Y006817D02*
X010833Y006934D01*
X036683Y005358D02*
X036963Y005358D01*
X036963Y005265D02*
X036963Y005451D01*
X036776Y005265D02*
X036683Y005358D01*
X036726Y004600D02*
X036679Y004554D01*
X036679Y004460D01*
X036726Y004413D01*
X036726Y004600D02*
X036773Y004600D01*
X036960Y004413D01*
X036960Y004600D01*
X036917Y003690D02*
X036963Y003644D01*
X036963Y003550D01*
X036917Y003503D01*
X036823Y003597D02*
X036823Y003644D01*
X036870Y003690D01*
X036917Y003690D01*
X036823Y003644D02*
X036776Y003690D01*
X036730Y003690D01*
X036683Y003644D01*
X036683Y003550D01*
X036730Y003503D01*
X039383Y003295D02*
X039523Y003155D01*
X039523Y003342D01*
X039663Y003295D02*
X039383Y003295D01*
D28*
X011113Y029060D02*
X010863Y029060D01*
X010613Y029060D01*
X010613Y029310D02*
X010863Y029310D01*
X011113Y029310D01*
M02*
