%
M48
M72
T01C0.0240
T02C0.0320
T03C0.0360
T04C0.0400
T05C0.0440
T06C0.0900
T07C0.1250
T08C0.1300
%
T01
X9963Y9330
X14763Y11630
X15263Y9080
X18763Y10530
X21213Y11680
X23313Y12680
X24363Y13730
X23813Y15130
X23313Y16130
X23813Y17630
X25163Y17980
X25563Y18880
X27413Y17630
X29213Y15680
X30463Y16330
X30963Y16830
X31813Y17580
X30513Y19580
X27263Y20630
X25513Y21330
X23313Y23680
X23313Y26030
X22363Y28230
X19963Y28980
X19413Y26480
X18713Y25830
X19763Y21680
X19363Y20080
X18713Y18480
X18763Y17430
X19713Y15630
X16463Y13980
X15513Y15530
X13813Y17180
X11813Y19180
X14913Y21330
X12913Y14530
X14813Y3930
X16063Y3930
X21013Y2680
X20963Y1630
X21913Y3680
X27113Y8830
X33563Y15880
X36163Y15130
X38113Y13180
X37913Y3130
X38063Y2130
X28913Y25180
X23813Y30680
X16813Y30130
T02
X14363Y31180
X13363Y29680
X13363Y28680
X10863Y28180
X10863Y30180
X11363Y31180
X10863Y32680
X9863Y32680
X12863Y32680
X13863Y32680
X20363Y32680
X21363Y32680
X23363Y32680
X24363Y32680
X24863Y30680
X25863Y30680
X21863Y30180
X20863Y30180
X18363Y27180
X17363Y27180
X16863Y25180
X17863Y25180
X18863Y25180
X20363Y24180
X20363Y23180
X20363Y22180
X19363Y22180
X19363Y21180
X20363Y21180
X20363Y20180
X20363Y19180
X20363Y18180
X20363Y17180
X20363Y16180
X20363Y15180
X20363Y14180
X20363Y13180
X20363Y12180
X20363Y11180
X20363Y10180
X20363Y9180
X20363Y8180
X20363Y7180
X20363Y6180
X20363Y5180
X16863Y5180
X16863Y6180
X16863Y7180
X16863Y8180
X16863Y9180
X16863Y10180
X17863Y10180
X17863Y11180
X16863Y11180
X16863Y12680
X15863Y12680
X14363Y12680
X14363Y13680
X14363Y14680
X14363Y15680
X14363Y16680
X14363Y17680
X15363Y18180
X14363Y18680
X15363Y19180
X14363Y19680
X14363Y20680
X15363Y20680
X16363Y21180
X15363Y21680
X14363Y21680
X14363Y22680
X14363Y23680
X14363Y24680
X14363Y25680
X15863Y25180
X16413Y23680
X16363Y22180
X18313Y23680
X11363Y23680
X11363Y22680
X11363Y21680
X11363Y20680
X11363Y19680
X10363Y19680
X10363Y18680
X11363Y18680
X11363Y17680
X11363Y16680
X11363Y15680
X11363Y14680
X11363Y13680
X11363Y12680
X12863Y10680
X13863Y10180
X12863Y9680
X13863Y9180
X13863Y8180
X12863Y8180
X12863Y7180
X13863Y7180
X13863Y6180
X13863Y5180
X12863Y4680
X13863Y4180
X12863Y5680
X11363Y6180
X11363Y9180
X13863Y11180
X15863Y16680
X18863Y16680
X26363Y16180
X26363Y15180
X26363Y14180
X26363Y13180
X26363Y12180
X26363Y11180
X26363Y10180
X26363Y9180
X26363Y8180
X26363Y7180
X26363Y6180
X26363Y5180
X28363Y5180
X28363Y6180
X28363Y7180
X28363Y8180
X28363Y9180
X28363Y10180
X28363Y11180
X28363Y12180
X28363Y13180
X28363Y14180
X28363Y15180
X28363Y16180
X28363Y17180
X28363Y18180
X28363Y19180
X28363Y20180
X26363Y20180
X26363Y19180
X26363Y18180
X26363Y17180
X26363Y21180
X26363Y22180
X26363Y23180
X26363Y24180
X27863Y23680
X27863Y22680
X33363Y21180
X34363Y21180
X34363Y20180
X34363Y19180
X34363Y18180
X34363Y17180
X34363Y16180
X34363Y15180
X34363Y14180
X34363Y13180
X34363Y12180
X34363Y11180
X34363Y10180
X34363Y9180
X34363Y8180
X34363Y7180
X34363Y6180
X34363Y5180
X35863Y6680
X36863Y6680
X36863Y7680
X36863Y8680
X35863Y9680
X36863Y11680
X37863Y11680
X36363Y12580
X36363Y13380
X37363Y14690
X36363Y15680
X37363Y16670
X36363Y18180
X36363Y19180
X36363Y20180
X36363Y21180
X39363Y21180
X39363Y20180
X39363Y19180
X39363Y18180
X40363Y19180
X40363Y20180
X40363Y17180
X40363Y14180
X39763Y13180
X38963Y13180
X40863Y11680
X39363Y10170
X38363Y9180
X39363Y8190
X39363Y6680
X38363Y6680
X35863Y24180
X34863Y24180
X33363Y26180
X32863Y27180
X32863Y28180
X33663Y28180
X33663Y29180
X32863Y29180
X32863Y30180
X33663Y30180
X33663Y31180
X36663Y31180
X36663Y30180
X36663Y29180
X36663Y28180
X37863Y27680
X37863Y28680
X36363Y26180
X11363Y25680
X11363Y24680
X16863Y4180
T03
X18363Y5180
X18363Y6180
X18363Y7180
X11863Y10180
X10863Y10180
X10863Y11180
X11863Y11180
X15363Y1680
X16363Y1680
X37863Y25180
X37863Y26180
X7863Y30680
X7863Y31680
X7863Y32680
T04
X16363Y28180
X17363Y28180
X18363Y28180
X9363Y21200
X9363Y20110
X9363Y19030
X9363Y17940
X9363Y16850
X8363Y16310
X8363Y15220
X8363Y14140
X9363Y14680
X9363Y13590
X9363Y12510
X9363Y11420
X9363Y10330
X8363Y9790
X8363Y8700
X9363Y8160
X9363Y9250
X8363Y10880
X8363Y11960
X8363Y13050
X6922Y13589
X6922Y12499
X5804Y13046
X5804Y14137
X5804Y15223
X5804Y16314
X6922Y15771
X6922Y14680
X9363Y15770
X8363Y17400
X8363Y18480
X8363Y19570
X8363Y20660
X6922Y16861
X18363Y2680
X18363Y1680
X19363Y1680
X20363Y1680
X20363Y2680
X19363Y2680
X22363Y2680
X23363Y2680
X24363Y2680
X24363Y1680
X23363Y1680
X22363Y1680
X25363Y1680
X26363Y1680
X26363Y2680
X25363Y2680
X29863Y2498
X30863Y2498
X31863Y2498
X31863Y1498
X30863Y1498
X29863Y1498
X32863Y1498
X32863Y2498
X40363Y8180
X40363Y9180
X40363Y10180
X30363Y23180
X30363Y24180
X30363Y25180
X30363Y26180
X30363Y27180
X30363Y28180
X30363Y29180
X30363Y30180
X30363Y31180
X30363Y32180
X13363Y1680
X12363Y1680
X11363Y1680
X10363Y1680
X9363Y1680
X8363Y1680
T05
X21363Y26180
X21363Y28180
X26363Y28180
X26363Y26180
T06
X7863Y26290
X6682Y28180
T07
X5863Y1680
X37263Y23180
X37263Y32180
X40363Y32680
X9084Y28180
X5863Y32680
X40363Y1680
T08
X8863Y5420
X6363Y9759
X6363Y19601
X8863Y23940
M30
